<svg xmlns="http://www.w3.org/2000/svg" xmlns:xlink="http://www.w3.org/1999/xlink" id="Layer_3" viewBox="0 0 293.3 234.19"><defs><style>      .st0 {        fill: #d8c5bc;      }      .st1 {        fill: url(#New_Gradient_Swatch_15);      }      .st2 {        fill: #7f3a38;      }      .st3 {        fill: #fffcfc;      }      .st4 {        fill: url(#New_Gradient_Swatch_13);      }      .st5 {        fill: url(#New_Gradient_Swatch_14);      }      .st6 {        fill: #956457;      }      .st7 {        fill: url(#New_Gradient_Swatch_11);      }      .st8 {        fill: #5e5b59;      }      .st9 {        fill: url(#New_Gradient_Swatch_16);      }      .st10 {        fill: #bb9c92;      }      .st11 {        fill: url(#New_Gradient_Swatch_1);      }      .st12 {        fill: url(#New_Gradient_Swatch_12);      }    </style><linearGradient id="New_Gradient_Swatch_1" data-name="New Gradient Swatch 1" x1="221.14" y1="136.26" x2="295.54" y2="61.86" gradientTransform="translate(357.4 -113.21) rotate(90)" gradientUnits="userSpaceOnUse"><stop offset="0" stop-color="#43448f"></stop><stop offset=".18" stop-color="#4e6ba0"></stop><stop offset=".38" stop-color="#598fb0"></stop><stop offset=".56" stop-color="#60a9bc"></stop><stop offset=".72" stop-color="#65b8c3"></stop><stop offset=".86" stop-color="#67bec6"></stop></linearGradient><linearGradient id="New_Gradient_Swatch_11" data-name="New Gradient Swatch 1" x1="192.36" y1="106.61" x2="266.17" y2="32.81" gradientTransform="matrix(1,0,0,1,0,0)" xlink:href="#New_Gradient_Swatch_1"></linearGradient><linearGradient id="New_Gradient_Swatch_12" data-name="New Gradient Swatch 1" x1="208.01" y1="122.26" x2="281.82" y2="48.45" gradientTransform="matrix(1,0,0,1,0,0)" xlink:href="#New_Gradient_Swatch_1"></linearGradient><linearGradient id="New_Gradient_Swatch_13" data-name="New Gradient Swatch 1" x1="181.26" y1="95.51" x2="255.07" y2="21.7" gradientTransform="matrix(1,0,0,1,0,0)" xlink:href="#New_Gradient_Swatch_1"></linearGradient><linearGradient id="New_Gradient_Swatch_14" data-name="New Gradient Swatch 1" x1="166.85" y1="81.09" x2="240.65" y2="7.29" gradientTransform="matrix(1,0,0,1,0,0)" xlink:href="#New_Gradient_Swatch_1"></linearGradient><linearGradient id="New_Gradient_Swatch_15" data-name="New Gradient Swatch 1" x1="192.47" y1="106.72" x2="266.27" y2="32.91" gradientTransform="matrix(1,0,0,1,0,0)" xlink:href="#New_Gradient_Swatch_1"></linearGradient><linearGradient id="New_Gradient_Swatch_16" data-name="New Gradient Swatch 1" x1="24.3" y1="234.04" x2="200.8" y2="57.54" gradientTransform="translate(353.25 59.19) rotate(90)" xlink:href="#New_Gradient_Swatch_1"></linearGradient></defs><g><rect class="st11" x="234.34" y="83.38" width="1.92" height="77.42" transform="translate(113.21 357.4) rotate(-90)"></rect><g><path class="st8" d="M197.14,173.88h7.82l5.22-11.2,4.08,2.45c1.81,1.09,3.27,2.67,4.2,4.57l.9,1.82c.71,1.44,2.17,2.35,3.78,2.35h4.73l-15.36-31.52-15.36,31.52ZM214.98,162.63h-4.77l2.32-4.98,2.45,4.98Z"></path><path class="st8" d="M241.43,149.03c1.45.01,2.82.36,4.03.98,1.6.81,3.54.47,4.81-.8l2.23-2.23c-3.08-3.08-7.42-4.89-12.18-4.58-7.81.5-14.15,6.81-14.69,14.61-.64,9.21,6.65,16.88,15.72,16.88,4.35,0,8.29-1.76,11.14-4.62l-2.23-2.23c-1.3-1.3-3.27-1.56-4.92-.75-1.21.59-2.56.92-4,.92-5.19,0-9.36-4.34-9.08-9.59.25-4.8,4.35-8.64,9.16-8.6Z"></path><g><path class="st8" d="M261.46,144.11v4.66h12.56v-6.67h-10.55c-1.11,0-2.01.9-2.01,2.01Z"></path><path class="st8" d="M261.46,158.99l5.91,5.91v-4.04c0-1.03-.84-1.87-1.87-1.87h-4.04v-10.21l-6.67-6.67v28.61c0,1.75,1.42,3.17,3.17,3.17h16.05v-6.67h-12.56v-8.22Z"></path></g></g><g><path class="st8" d="M197.15,178.53h.77v6.55h-.77v-6.55Z"></path><path class="st8" d="M203.61,185.08h-.76v-2.95c0-.76-.46-1.29-1.2-1.29s-1.27.54-1.27,1.29v2.95h-.76v-4.84h.72v.52c.36-.4.88-.63,1.49-.63,1.12,0,1.8.76,1.8,1.91v3.04Z"></path><path class="st8" d="M209.23,185.08h-.76v-2.95c0-.76-.46-1.29-1.2-1.29s-1.27.54-1.27,1.29v2.95h-.76v-4.84h.72v.52c.36-.4.88-.63,1.49-.63,1.12,0,1.8.76,1.8,1.91v3.04Z"></path><path class="st8" d="M213.03,180.13c1.38-.02,2.56,1.14,2.53,2.52.03,1.36-1.16,2.55-2.54,2.52-1.38.03-2.54-1.16-2.52-2.52-.03-1.38,1.15-2.55,2.53-2.52ZM213.03,180.84c-.99,0-1.75.78-1.75,1.83s.75,1.81,1.74,1.81,1.76-.79,1.76-1.81-.76-1.83-1.75-1.83Z"></path><path class="st8" d="M220.95,180.24l-2.27,4.95h-.28l-2.28-4.95h.81l1.61,3.64,1.6-3.64h.81Z"></path><path class="st8" d="M225.48,185.08h-.71v-.63c-.36.48-.92.73-1.63.73-.99,0-1.69-.53-1.69-1.36s.7-1.35,1.74-1.35h1.53v-.42c0-.79-.45-1.22-1.17-1.22-.59,0-1.01.26-1.41.77l-.51-.42c.44-.72,1.16-1.06,1.97-1.06,1.14,0,1.89.7,1.89,1.97v2.98ZM224.72,183.1h-1.44c-.68,0-1.04.24-1.04.69,0,.49.44.76,1,.76.79,0,1.48-.59,1.48-1.33v-.12Z"></path><path class="st8" d="M229.74,185.08c-.31.07-.58.11-.8.11-1,0-1.63-.51-1.63-1.57v-2.69h-.81v-.69h.81v-1.32h.76v1.32h1.51v.69h-1.51v2.64c0,.69.36.92,1.02.92.19,0,.4-.02.65-.06v.65Z"></path><path class="st8" d="M231.23,182.89c.09.95.82,1.59,1.78,1.59.55,0,1.04-.22,1.48-.66l.45.52c-.51.53-1.17.84-1.94.84-1.44,0-2.56-1.1-2.56-2.52s1.09-2.53,2.47-2.53c1.25,0,2.2.9,2.2,2.18,0,.19-.02.38-.06.58h-3.82ZM234.33,182.22c0-.86-.64-1.39-1.44-1.39s-1.46.56-1.63,1.39h3.07Z"></path><path class="st8" d="M200.12,190.33c1.16,0,2.16.55,2.72,1.41l-.58.46c-.51-.72-1.23-1.15-2.13-1.15-1.48,0-2.61,1.15-2.61,2.67s1.13,2.67,2.61,2.67c.9,0,1.63-.43,2.13-1.15l.58.46c-.55.86-1.56,1.41-2.72,1.41-1.86.03-3.45-1.51-3.41-3.39-.04-1.88,1.55-3.42,3.41-3.39Z"></path><path class="st8" d="M206.27,192.05c1.38-.02,2.56,1.14,2.53,2.52.03,1.36-1.16,2.55-2.54,2.52-1.38.03-2.54-1.16-2.52-2.52-.03-1.38,1.15-2.55,2.53-2.52ZM206.27,192.75c-.99,0-1.75.78-1.75,1.83s.75,1.81,1.74,1.81,1.76-.79,1.76-1.81-.76-1.83-1.75-1.83Z"></path><path class="st8" d="M210.14,189.55h.76v7.45h-.76v-7.45Z"></path><path class="st8" d="M212.58,189.55h.76v7.45h-.76v-7.45Z"></path><path class="st8" d="M218.65,196.99h-.71v-.63c-.36.48-.92.73-1.63.73-.99,0-1.69-.53-1.69-1.36s.7-1.35,1.74-1.35h1.53v-.42c0-.79-.45-1.22-1.17-1.22-.59,0-1.01.26-1.41.77l-.51-.42c.44-.72,1.16-1.06,1.97-1.06,1.14,0,1.89.7,1.89,1.97v2.98ZM217.89,195.02h-1.44c-.68,0-1.04.24-1.04.69,0,.49.44.76,1,.76.79,0,1.48-.59,1.48-1.33v-.12Z"></path><path class="st8" d="M222.82,197.1c-.75,0-1.47-.33-1.84-.87v.76h-.72v-7.45h.76v3.32c.39-.51,1.05-.81,1.78-.81,1.36,0,2.39,1.11,2.39,2.53s-1.02,2.52-2.38,2.52ZM222.7,192.75c-.89,0-1.68.6-1.68,1.83s.81,1.82,1.68,1.82c.98,0,1.72-.78,1.72-1.83s-.73-1.82-1.72-1.82Z"></path><path class="st8" d="M228.73,192.05c1.38-.02,2.56,1.14,2.53,2.52.03,1.36-1.16,2.55-2.54,2.52-1.38.03-2.54-1.16-2.52-2.52-.03-1.38,1.15-2.55,2.53-2.52ZM228.73,192.75c-.99,0-1.75.78-1.75,1.83s.75,1.81,1.74,1.81,1.76-.79,1.76-1.81-.76-1.83-1.75-1.83Z"></path><path class="st8" d="M235.17,192.83h-.29c-.81,0-1.52.53-1.52,1.42v2.74h-.76v-4.84h.72v.69c.35-.47.91-.72,1.5-.72.11,0,.23,0,.36.04v.68Z"></path><path class="st8" d="M239.72,196.99h-.71v-.63c-.36.48-.92.73-1.63.73-.99,0-1.69-.53-1.69-1.36s.7-1.35,1.74-1.35h1.53v-.42c0-.79-.45-1.22-1.17-1.22-.59,0-1.01.26-1.41.77l-.51-.42c.44-.72,1.16-1.06,1.97-1.06,1.14,0,1.89.7,1.89,1.97v2.98ZM238.95,195.02h-1.44c-.68,0-1.04.24-1.04.69,0,.49.44.76,1,.76.79,0,1.48-.59,1.48-1.33v-.12Z"></path><path class="st8" d="M243.98,196.99c-.31.07-.58.11-.8.11-1,0-1.63-.51-1.63-1.57v-2.69h-.81v-.69h.81v-1.32h.76v1.32h1.51v.69h-1.51v2.64c0,.69.36.92,1.02.92.19,0,.4-.02.65-.06v.65Z"></path><path class="st8" d="M245.47,194.81c.09.95.82,1.59,1.78,1.59.55,0,1.04-.22,1.48-.66l.45.52c-.51.53-1.17.84-1.94.84-1.44,0-2.56-1.1-2.56-2.52s1.09-2.53,2.47-2.53c1.25,0,2.2.9,2.2,2.18,0,.19-.02.38-.06.58h-3.82ZM248.57,194.13c0-.86-.64-1.39-1.44-1.39s-1.46.56-1.63,1.39h3.07Z"></path><path class="st8" d="M201.14,207.58h-3.22l-.56,1.33h-.81l2.84-6.66h.29l2.84,6.66h-.82l-.56-1.33ZM199.53,203.66l-1.31,3.23h2.62l-1.31-3.23Z"></path><path class="st8" d="M205.69,203.96c.84,0,1.56.41,2,1.05l-.55.44c-.39-.53-.87-.78-1.44-.78-1,0-1.76.81-1.76,1.82s.75,1.83,1.76,1.83c.57,0,1.04-.26,1.43-.77l.55.43c-.44.65-1.14,1.05-1.99,1.05-1.4,0-2.53-1.13-2.53-2.53-.03-1.38,1.15-2.54,2.53-2.52Z"></path><path class="st8" d="M211.07,203.96c.84,0,1.56.41,2,1.05l-.55.44c-.39-.53-.87-.78-1.44-.78-1,0-1.76.81-1.76,1.82s.75,1.83,1.76,1.83c.57,0,1.04-.26,1.43-.77l.55.43c-.44.65-1.14,1.05-1.99,1.05-1.4,0-2.53-1.13-2.53-2.53-.03-1.38,1.15-2.54,2.53-2.52Z"></path><path class="st8" d="M214.7,206.72c.09.95.82,1.59,1.78,1.59.55,0,1.04-.22,1.48-.66l.45.52c-.51.53-1.17.84-1.94.84-1.44,0-2.56-1.1-2.56-2.52s1.09-2.53,2.47-2.53c1.25,0,2.2.9,2.2,2.18,0,.19-.02.38-.06.58h-3.82ZM217.8,206.05c0-.86-.64-1.39-1.44-1.39s-1.46.56-1.63,1.39h3.07Z"></path><path class="st8" d="M219.92,201.46h.76v7.45h-.76v-7.45Z"></path><path class="st8" d="M222.81,206.72c.09.95.82,1.59,1.78,1.59.55,0,1.04-.22,1.48-.66l.45.52c-.51.53-1.17.84-1.94.84-1.44,0-2.56-1.1-2.56-2.52s1.09-2.53,2.47-2.53c1.25,0,2.2.9,2.2,2.18,0,.19-.02.38-.06.58h-3.82ZM225.91,206.05c0-.86-.64-1.39-1.44-1.39s-1.46.56-1.63,1.39h3.07Z"></path><path class="st8" d="M230.61,204.75h-.29c-.81,0-1.52.53-1.52,1.42v2.74h-.76v-4.84h.72v.69c.35-.47.91-.72,1.5-.72.11,0,.23,0,.36.04v.68Z"></path><path class="st8" d="M235.15,208.91h-.71v-.63c-.36.48-.92.73-1.63.73-.99,0-1.69-.53-1.69-1.36s.7-1.35,1.74-1.35h1.53v-.42c0-.79-.45-1.22-1.17-1.22-.59,0-1.01.26-1.41.77l-.51-.42c.44-.72,1.16-1.06,1.97-1.06,1.14,0,1.89.7,1.89,1.97v2.98ZM234.39,206.93h-1.44c-.68,0-1.04.24-1.04.69,0,.49.44.76,1,.76.79,0,1.48-.59,1.48-1.33v-.12Z"></path><path class="st8" d="M239.41,208.91c-.31.07-.58.11-.8.11-1,0-1.63-.51-1.63-1.57v-2.69h-.81v-.69h.81v-1.32h.76v1.32h1.51v.69h-1.51v2.64c0,.69.36.92,1.02.92.19,0,.4-.02.65-.06v.65Z"></path><path class="st8" d="M240.9,206.72c.09.95.82,1.59,1.78,1.59.55,0,1.04-.22,1.48-.66l.45.52c-.51.53-1.17.84-1.94.84-1.44,0-2.56-1.1-2.56-2.52s1.09-2.53,2.47-2.53c1.25,0,2.2.9,2.2,2.18,0,.19-.02.38-.06.58h-3.82ZM244,206.05c0-.86-.64-1.39-1.44-1.39s-1.46.56-1.63,1.39h3.07Z"></path></g><g><path class="st7" d="M197.02,76.67v25.28h25.28c6.26,0,11.34-5.08,11.34-11.34v-25.28h-25.28c-6.26,0-11.34,5.08-11.34,11.34Z"></path><path class="st12" d="M251.66,65.33h-14.27v14.27c0,7.34,5.95,13.29,13.29,13.29h14.27v-14.27c0-7.34-5.95-13.29-13.29-13.29Z"></path><path class="st4" d="M225.17,42.99h-10.2v10.2c0,4.75,3.85,8.6,8.6,8.6h10.2v-10.2c0-4.75-3.85-8.6-8.6-8.6Z"></path><path class="st5" d="M208.55,41.06h4.49v-4.49c0-.92-.74-1.66-1.66-1.66h-4.49v4.49c0,.92.74,1.66,1.66,1.66Z"></path><path class="st1" d="M254.64,25.17c-9.53,0-17.25,7.72-17.25,17.25v19.38h19.38c9.53,0,17.25-7.72,17.25-17.25v-19.38h-19.38Z"></path></g></g><rect class="st9" x="151.85" y="23.94" width="1.92" height="186.31" transform="translate(305.62 234.19) rotate(180)"></rect><g><polygon class="st2" points="23.45 161.14 23.45 156.95 21.27 156.95 21.27 161.14 19.29 161.14 19.29 155.49 25.43 155.49 25.43 161.14 23.45 161.14"></polygon><path class="st2" d="M31.06,156.97l-.87,2.23h1.73l-.86-2.23ZM32.71,161.14l-.38-.92h-2.55l-.37.92h-1.96l2.57-5.65h2.07l2.58,5.65h-1.96Z"></path><polygon class="st2" points="41.48 161.14 38.62 158.24 38.73 161.14 36.72 161.14 36.72 155.49 38.42 155.49 41.27 158.39 41.16 155.49 43.17 155.49 43.17 161.14 41.48 161.14"></polygon><polygon class="st2" points="45.7 161.14 45.7 155.49 49.94 155.49 49.94 156.68 47.69 156.68 47.69 157.68 49.74 157.68 49.74 158.87 47.69 158.87 47.69 159.95 49.97 159.95 49.97 161.14 45.7 161.14"></polygon><polygon class="st2" points="56.45 161.14 56.45 156.95 54.27 156.95 54.27 161.14 52.29 161.14 52.29 155.49 58.43 155.49 58.43 161.14 56.45 161.14"></polygon><rect class="st2" x="60.96" y="155.49" width="1.98" height="5.65"></rect><polygon class="st2" points="64.85 161.14 66.86 158.17 64.86 155.49 70.58 155.49 70.58 156.83 67.95 156.83 69.02 158.17 67.94 159.8 70.64 159.8 70.64 161.14 64.85 161.14"></polygon><polygon class="st2" points="76.26 156.91 76.26 161.14 74.28 161.14 74.28 156.91 72.51 156.91 72.51 155.49 78.02 155.49 78.02 156.91 76.26 156.91"></polygon><polygon class="st2" points="84.33 161.14 84.33 159 82.15 159 82.15 161.14 80.17 161.14 80.17 155.49 82.15 155.49 82.15 157.55 84.33 157.55 84.33 155.49 86.31 155.49 86.31 161.14 84.33 161.14"></polygon><polygon class="st2" points="93.77 161.14 93.82 158.11 93.81 158.09 92.29 160.16 90.77 158.09 90.76 158.11 90.81 161.14 88.83 161.14 88.83 155.49 90.6 155.49 92.29 157.78 93.98 155.49 95.75 155.49 95.75 161.14 93.77 161.14"></polygon><rect class="st2" x="98.27" y="155.49" width="1.98" height="5.65"></rect><rect class="st2" x="42.23" y="144.15" width="1.98" height="5.65"></rect><polygon class="st2" points="50.79 149.8 48.74 147.15 48.73 147.15 48.73 149.8 46.75 149.8 46.75 144.15 48.73 144.15 48.73 146.71 50.99 144.15 53.07 144.15 50.77 146.78 53.15 149.8 50.79 149.8"></polygon><polygon class="st2" points="67.97 149.8 65.11 146.9 65.22 149.8 63.21 149.8 63.21 144.15 64.9 144.15 67.76 147.05 67.65 144.15 69.66 144.15 69.66 149.8 67.97 149.8"></polygon><polygon class="st2" points="85.37 149.8 85.42 146.77 85.4 146.75 83.88 148.82 82.37 146.75 82.35 146.77 82.4 149.8 80.42 149.8 80.42 144.15 82.19 144.15 83.88 146.43 85.57 144.15 87.35 144.15 87.35 149.8 85.37 149.8"></polygon><rect class="st2" x="89.87" y="144.15" width="1.98" height="5.65"></rect><polygon class="st2" points="98.43 149.8 96.39 147.15 96.37 147.15 96.37 149.8 94.39 149.8 94.39 144.15 96.37 144.15 96.37 146.71 98.63 144.15 100.71 144.15 98.41 146.78 100.8 149.8 98.43 149.8"></polygon><path class="st2" d="M36.87,145.51c-.36,0-.65.14-.89.42-.24.29-.36.65-.36,1.06s.12.79.36,1.07c.24.28.53.42.89.42s.65-.13.89-.42c.24-.29.37-.65.37-1.07s-.12-.77-.37-1.07c-.24-.28-.53-.42-.89-.42M36.87,150.12c-.89,0-1.64-.3-2.23-.89-.6-.6-.9-1.35-.9-2.24s.3-1.63.89-2.22c.59-.6,1.34-.9,2.23-.9s1.64.3,2.23.89c.6.6.9,1.35.9,2.23s-.3,1.64-.9,2.23c-.6.6-1.34.9-2.23.9"></path><path class="st2" d="M57.8,145.51c-.36,0-.65.14-.89.42-.24.29-.36.65-.36,1.06s.12.79.36,1.07c.24.28.53.42.9.42s.65-.13.89-.42c.24-.29.36-.65.36-1.07s-.12-.77-.36-1.07c-.24-.28-.53-.42-.89-.42M57.8,150.12c-.89,0-1.64-.3-2.23-.89-.59-.6-.9-1.35-.9-2.24s.3-1.63.89-2.22c.6-.6,1.35-.9,2.24-.9s1.63.3,2.23.89c.6.6.9,1.35.9,2.23s-.3,1.64-.9,2.23-1.34.9-2.23.9"></path><path class="st2" d="M75.27,145.51c-.36,0-.65.14-.89.42-.24.29-.37.65-.37,1.06s.12.79.36,1.07c.24.28.53.42.9.42s.66-.13.89-.42c.24-.29.36-.65.36-1.07s-.12-.77-.36-1.07c-.24-.28-.53-.42-.89-.42M75.27,150.12c-.89,0-1.64-.3-2.23-.89-.59-.6-.89-1.35-.89-2.24s.3-1.63.89-2.22c.59-.6,1.35-.9,2.24-.9s1.63.3,2.23.89c.6.6.9,1.35.9,2.23s-.3,1.64-.9,2.23c-.59.6-1.34.9-2.23.9"></path><path class="st2" d="M105.4,145.51c-.36,0-.65.14-.89.42-.24.29-.36.65-.36,1.06s.12.79.36,1.07c.24.28.53.42.89.42s.66-.13.89-.42c.24-.29.37-.65.37-1.07s-.12-.77-.37-1.07c-.24-.28-.53-.42-.89-.42M105.4,150.12c-.89,0-1.64-.3-2.23-.89-.6-.6-.9-1.35-.9-2.24s.3-1.63.89-2.22c.59-.6,1.34-.9,2.23-.9s1.64.3,2.24.89c.6.6.9,1.35.9,2.23s-.3,1.64-.9,2.23c-.59.6-1.35.9-2.24.9"></path><path class="st2" d="M105.4,156.83c-.36,0-.65.14-.89.42-.24.29-.36.65-.36,1.06s.12.79.36,1.07c.24.28.53.42.89.42s.66-.14.89-.42c.24-.29.37-.65.37-1.06s-.12-.78-.37-1.07c-.24-.28-.53-.42-.89-.42M105.4,161.44c-.89,0-1.64-.3-2.23-.89-.6-.59-.9-1.35-.9-2.23s.3-1.64.89-2.23c.59-.6,1.34-.9,2.23-.9s1.64.3,2.24.89c.6.6.9,1.35.9,2.24s-.3,1.64-.9,2.22c-.59.6-1.35.9-2.24.9"></path><path class="st2" d="M62.14,168.31l-.87,2.24h1.73l-.86-2.24ZM63.79,172.48l-.37-.92h-2.55l-.37.92h-1.97l2.58-5.65h2.07l2.58,5.65h-1.97Z"></path><polygon class="st2" points="80.17 172.48 80.17 170.34 77.99 170.34 77.99 172.48 76.01 172.48 76.01 166.83 77.99 166.83 77.99 168.89 80.17 168.89 80.17 166.83 82.15 166.83 82.15 172.48 80.17 172.48"></polygon><polygon class="st2" points="89.45 172.48 86.59 169.58 86.7 172.48 84.69 172.48 84.69 166.83 86.38 166.83 89.24 169.73 89.13 166.83 91.14 166.83 91.14 172.48 89.45 172.48"></polygon><polygon class="st2" points="106.72 172.48 103.86 169.58 103.97 172.48 101.97 172.48 101.97 166.83 103.66 166.83 106.52 169.73 106.41 166.83 108.41 166.83 108.41 172.48 106.72 172.48"></polygon><path class="st2" d="M71.91,169.64c0-.44-.13-.81-.38-1.11-.25-.3-.57-.45-.95-.45s-.69.15-.94.45c-.26.3-.38.67-.38,1.11s.13.82.37,1.12c.25.3.57.45.95.45s.7-.15.95-.45c.25-.3.38-.67.38-1.11M73.64,169.64c0,.87-.29,1.6-.88,2.17-.58.59-1.31.88-2.18.88s-1.6-.29-2.18-.87c-.58-.58-.87-1.31-.87-2.18s.29-1.6.87-2.18c.58-.58,1.31-.87,2.18-.87s1.6.29,2.18.87c.58.58.88,1.31.88,2.18"></path><rect class="st2" x="69.74" y="169.08" width="1.68" height="1.1"></rect><path class="st2" d="M99.41,172.48h-2.27v-1.7c.45-.28.68-.68.68-1.18,0-.44-.13-.81-.38-1.11-.25-.3-.57-.45-.95-.45s-.7.15-.94.45c-.25.3-.38.67-.38,1.1,0,.53.24.93.72,1.21v1.67h-2.32l-.24-1.46h.55c-.29-.49-.43-.95-.43-1.41,0-.87.29-1.6.87-2.18.58-.58,1.31-.87,2.18-.87s1.59.29,2.18.86c.58.58.88,1.32.88,2.18,0,.46-.15.93-.43,1.41h.53l-.25,1.46Z"></path><path class="st2" d="M21.75,182.06l-.77,1.87h1.6l-.83-1.87ZM23.56,186.1l-.69-1.52h-2.19l-.65,1.52h-.76l2.21-5.18h.52l2.3,5.18h-.75Z"></path><polygon class="st2" points="27.4 181.63 27.4 186.1 26.66 186.1 26.66 181.63 24.88 181.63 24.88 180.96 29.18 180.96 29.18 181.63 27.4 181.63"></polygon><polygon class="st2" points="34.7 186.1 34.7 183.86 31.82 183.86 31.82 186.1 31.08 186.1 31.08 180.96 31.82 180.96 31.82 183.2 34.7 183.2 34.7 180.96 35.44 180.96 35.44 186.1 34.7 186.1"></polygon><polygon class="st2" points="37.78 186.1 37.78 180.96 40.7 180.96 40.7 181.63 38.52 181.63 38.52 183.18 40.63 183.18 40.63 183.84 38.52 183.84 38.52 185.44 40.77 185.44 40.77 186.1 37.78 186.1"></polygon><polygon class="st2" points="46.88 186.1 43.44 182.14 43.44 186.1 42.76 186.1 42.76 180.96 43.34 180.96 46.82 184.94 46.82 180.96 47.52 180.96 47.52 186.1 46.88 186.1"></polygon><path class="st2" d="M52.5,184.77c0,.4-.14.73-.41.99-.28.27-.62.4-1.03.4-.54,0-1.02-.15-1.44-.48v-.93c.39.5.84.75,1.36.75.26,0,.47-.08.63-.22.13-.13.2-.27.2-.43,0-.29-.19-.57-.57-.83-.17-.12-.35-.24-.53-.35-.18-.12-.36-.23-.54-.35-.38-.3-.58-.66-.58-1.07,0-.42.14-.75.42-.99.3-.25.67-.38,1.14-.38.4,0,.78.12,1.15.36v.83c-.38-.36-.79-.54-1.21-.54-.23,0-.42.06-.58.17-.16.11-.23.26-.23.44,0,.26.19.52.57.75.35.22.61.38.79.49.18.11.28.17.28.18.38.32.58.72.58,1.19"></path><path class="st2" d="M62.13,184.08c0,.64-.19,1.15-.56,1.52-.4.38-.97.57-1.72.57-.59,0-1.09-.16-1.47-.48-.44-.36-.67-.87-.67-1.53v-3.2h.74v3.03c0,.29.03.51.07.66.05.15.13.28.24.4.29.29.66.44,1.11.44.53,0,.93-.14,1.21-.41.22-.22.32-.59.32-1.12v-3h.74v3.12Z"></path><polygon class="st2" points="68.48 186.1 65.04 182.14 65.04 186.1 64.35 186.1 64.35 180.96 64.94 180.96 68.42 184.94 68.42 180.96 69.12 180.96 69.12 186.1 68.48 186.1"></polygon><rect class="st2" x="71.46" y="180.96" width=".74" height="5.14"></rect><polygon class="st2" points="76.35 186.15 76.2 186.15 73.98 180.96 74.72 180.96 76.26 184.57 77.8 180.96 78.53 180.96 76.35 186.15"></polygon><polygon class="st2" points="80.3 186.1 80.3 180.96 83.22 180.96 83.22 181.63 81.04 181.63 81.04 183.18 83.14 183.18 83.14 183.84 81.04 183.84 81.04 185.44 83.28 185.44 83.28 186.1 80.3 186.1"></polygon><path class="st2" d="M87.52,182.37c0-.52-.34-.78-1.01-.78h-.47v1.61h.47c.68,0,1.02-.28,1.01-.83M88.38,186.1l-.68-1.06c-.16-.25-.31-.45-.44-.62-.13-.16-.25-.29-.36-.37-.16-.12-.35-.19-.57-.19h-.31v2.23h-.74v-5.14h1.29c.53,0,.94.13,1.24.38.3.26.45.61.45,1.05,0,.61-.28,1.04-.86,1.26.21.14.42.34.6.58.12.15.3.43.54.83.13.21.36.55.7,1.02h-.89Z"></path><path class="st2" d="M93.68,184.77c0,.4-.13.73-.4.99-.28.27-.62.4-1.04.4-.54,0-1.02-.15-1.44-.48v-.93c.38.5.84.75,1.35.75.26,0,.47-.08.63-.22.13-.13.2-.27.2-.43,0-.29-.19-.57-.57-.83-.18-.12-.36-.24-.54-.35-.18-.12-.36-.23-.55-.35-.38-.3-.57-.66-.57-1.07,0-.42.14-.75.43-.99.29-.25.67-.38,1.14-.38.4,0,.78.12,1.14.36v.83c-.38-.36-.79-.54-1.2-.54-.23,0-.43.06-.59.17-.15.11-.23.26-.23.44,0,.26.19.52.57.75.35.22.61.38.8.49.18.11.27.17.28.18.38.32.57.72.57,1.19"></path><rect class="st2" x="95.7" y="180.96" width=".74" height="5.14"></rect><polygon class="st2" points="100.87 181.63 100.87 186.1 100.13 186.1 100.13 181.63 98.35 181.63 98.35 180.96 102.65 180.96 102.65 181.63 100.87 181.63"></polygon><polygon class="st2" points="106.63 183.39 106.63 186.1 105.89 186.1 105.89 183.38 103.98 180.96 104.87 180.96 106.25 182.73 107.65 180.96 108.54 180.96 106.63 183.39"></polygon><path class="st2" d="M44.81,194.44c0-.57-.18-1.04-.56-1.41-.39-.37-.87-.55-1.44-.55s-1.04.19-1.42.55c-.38.37-.57.84-.57,1.41s.19,1.02.57,1.4c.38.37.86.56,1.43.56s1.05-.19,1.43-.56c.39-.37.57-.84.57-1.4M45.57,194.44c0,.71-.24,1.33-.74,1.84-.52.53-1.2.8-2.04.8s-1.49-.27-2-.8c-.49-.51-.74-1.13-.74-1.84s.25-1.36.75-1.86c.53-.52,1.19-.79,2.01-.79s1.5.26,2.02.79c.5.49.74,1.12.74,1.86"></path><polygon class="st2" points="48.43 194.61 48.43 197 47.69 197 47.69 191.86 50.44 191.86 50.44 192.52 48.43 192.52 48.43 193.95 50.44 193.95 50.44 194.61 48.43 194.61"></polygon><polygon class="st2" points="55.73 197 55.73 191.86 58.64 191.86 58.64 192.52 56.47 192.52 56.47 194.07 58.57 194.07 58.57 194.74 56.47 194.74 56.47 196.34 58.72 196.34 58.72 197 55.73 197"></polygon><path class="st2" d="M65.14,196.62c-.58.3-1.2.46-1.87.46-.89,0-1.58-.3-2.11-.88-.44-.49-.67-1.05-.67-1.68,0-.79.26-1.44.79-1.95.54-.51,1.21-.77,2.03-.77.5,0,1.08.15,1.77.42v.8c-.61-.36-1.2-.54-1.77-.54s-1.08.19-1.46.55c-.39.38-.59.85-.59,1.42s.19,1.05.57,1.41c.39.36.89.54,1.51.54s1.2-.2,1.8-.58v.81Z"></path><path class="st2" d="M71.79,194.44c0-.57-.19-1.04-.57-1.41-.38-.37-.87-.55-1.44-.55s-1.04.19-1.42.55c-.38.37-.57.84-.57,1.41s.19,1.02.57,1.4c.39.37.87.56,1.43.56s1.06-.19,1.43-.56c.38-.37.57-.84.57-1.4M72.55,194.44c0,.71-.25,1.33-.74,1.84-.52.53-1.2.8-2.04.8s-1.49-.27-2-.8c-.5-.51-.74-1.13-.74-1.84s.25-1.36.75-1.86c.53-.52,1.19-.79,2-.79s1.5.26,2.02.79c.49.49.75,1.12.75,1.86"></path><polygon class="st2" points="78.78 197 75.35 193.04 75.35 197 74.65 197 74.65 191.86 75.24 191.86 78.72 195.84 78.72 191.86 79.42 191.86 79.42 197 78.78 197"></polygon><path class="st2" d="M86.29,194.44c0-.57-.19-1.04-.57-1.41-.39-.37-.86-.55-1.44-.55s-1.04.19-1.43.55c-.38.37-.57.84-.57,1.41s.19,1.02.56,1.4c.39.37.86.56,1.43.56s1.05-.19,1.43-.56c.38-.37.58-.84.58-1.4M87.05,194.44c0,.71-.25,1.33-.74,1.84-.52.53-1.2.8-2.04.8s-1.49-.27-2.01-.8c-.49-.51-.74-1.13-.74-1.84s.26-1.36.76-1.86c.52-.52,1.19-.79,2-.79s1.5.26,2.02.79c.5.49.75,1.12.75,1.86"></path><polygon class="st2" points="93.2 197 93.2 193 93.19 193 91.61 194.99 91.49 194.99 89.9 193 89.89 193 89.89 197 89.15 197 89.15 191.86 89.84 191.86 91.55 193.98 93.26 191.86 93.95 191.86 93.95 197 93.2 197"></polygon><rect class="st2" x="96.27" y="191.86" width=".74" height="5.14"></rect><path class="st2" d="M103.78,196.62c-.58.3-1.2.46-1.86.46-.89,0-1.59-.3-2.11-.88-.45-.49-.67-1.05-.67-1.68,0-.79.26-1.44.79-1.95.54-.51,1.21-.77,2.03-.77.5,0,1.09.15,1.76.42v.8c-.61-.36-1.21-.54-1.77-.54-.59,0-1.07.19-1.46.55-.39.38-.59.85-.59,1.42s.19,1.05.57,1.41c.39.36.89.54,1.51.54s1.2-.2,1.79-.58v.81Z"></path><path class="st2" d="M108.54,195.68c0,.39-.13.73-.41.99-.28.27-.62.41-1.03.41-.54,0-1.02-.16-1.44-.48v-.94c.39.5.84.75,1.36.75.26,0,.47-.07.63-.22.14-.12.2-.27.2-.43,0-.29-.19-.57-.57-.83-.18-.12-.35-.24-.53-.36-.19-.12-.37-.23-.55-.35-.38-.31-.58-.66-.58-1.07s.15-.75.43-.99c.29-.26.67-.38,1.13-.38.41,0,.79.12,1.15.37v.83c-.38-.36-.78-.54-1.2-.54-.23,0-.43.06-.58.17-.16.11-.23.26-.23.44,0,.26.19.51.57.75.35.22.62.38.8.49.18.11.27.17.28.18.38.32.57.71.57,1.19"></path><path class="st2" d="M47.82,203.87l-.77,1.86h1.6l-.83-1.86ZM49.64,207.91l-.69-1.51h-2.18l-.65,1.51h-.76l2.21-5.17h.52l2.3,5.17h-.75Z"></path><polygon class="st2" points="56.28 207.91 52.85 203.95 52.85 207.91 52.16 207.91 52.16 202.77 52.74 202.77 56.22 206.75 56.22 202.77 56.92 202.77 56.92 207.91 56.28 207.91"></polygon><path class="st2" d="M63.24,205.34c0-.56-.17-1.01-.51-1.34-.38-.38-.91-.57-1.59-.57h-1.14v3.82h1.17c.74,0,1.29-.24,1.66-.72.27-.35.4-.75.4-1.19M64,205.34c0,.7-.24,1.29-.73,1.78-.52.53-1.19.79-2,.79h-2.01v-5.14h2c.88,0,1.57.28,2.08.83.44.48.65,1.07.65,1.74"></path><path class="st2" d="M72.18,206.43c0-.25-.09-.44-.29-.58-.18-.14-.47-.22-.85-.22h-.89v1.61h.92c.74,0,1.1-.27,1.1-.81M71.73,204.14c0-.47-.3-.72-.9-.72h-.68v1.54h.49c.73,0,1.08-.27,1.08-.82M72.95,206.53c0,.36-.13.67-.4.92-.32.3-.77.45-1.36.45h-1.76v-5.14h1.49c.52,0,.92.13,1.2.41.25.24.38.54.38.9,0,.52-.26.89-.78,1.1h0c.39.09.69.23.9.47.22.25.33.54.33.88"></path><path class="st2" d="M79.19,205.89c0,.65-.19,1.15-.57,1.51-.4.38-.97.58-1.72.58-.6,0-1.09-.17-1.48-.48-.44-.36-.66-.87-.66-1.53v-3.2h.74v3.04c0,.29.02.5.07.65.04.15.12.29.24.4.3.29.66.43,1.11.43.53,0,.93-.13,1.2-.41.22-.21.33-.59.33-1.12v-2.99h.74v3.12Z"></path><path class="st2" d="M84.06,206.58c0,.4-.14.73-.41,1-.27.26-.62.4-1.03.4-.54,0-1.02-.16-1.44-.47v-.94c.38.49.84.75,1.36.75.26,0,.47-.07.63-.22.14-.13.2-.27.2-.42,0-.3-.19-.57-.57-.83-.17-.12-.35-.24-.53-.35-.18-.12-.36-.23-.54-.35-.38-.3-.57-.66-.57-1.06,0-.42.14-.75.42-.99.29-.25.67-.38,1.14-.38.4,0,.78.12,1.15.36v.84c-.38-.36-.78-.54-1.2-.54-.23,0-.43.06-.58.16-.16.11-.23.26-.23.45,0,.26.19.51.57.76.35.21.61.38.79.49.18.11.27.17.29.18.38.32.57.71.57,1.18"></path><rect class="st2" x="86.08" y="202.77" width=".74" height="5.14"></rect><polygon class="st2" points="93.29 207.91 89.85 203.95 89.85 207.91 89.15 207.91 89.15 202.77 89.74 202.77 93.23 206.75 93.23 202.77 93.92 202.77 93.92 207.91 93.29 207.91"></polygon><polygon class="st2" points="96.26 207.91 96.26 202.77 99.18 202.77 99.18 203.43 97 203.43 97 204.98 99.1 204.98 99.1 205.64 97 205.64 97 207.24 99.24 207.24 99.24 207.91 96.26 207.91"></polygon><path class="st2" d="M103.88,206.58c0,.4-.13.73-.41,1-.27.26-.62.4-1.03.4-.53,0-1.02-.16-1.44-.47v-.94c.39.49.84.75,1.36.75.26,0,.47-.07.63-.22.13-.13.21-.27.21-.42,0-.3-.19-.57-.57-.83-.18-.12-.36-.24-.54-.35-.18-.12-.36-.23-.54-.35-.38-.3-.57-.66-.57-1.06,0-.42.14-.75.42-.99.29-.25.67-.38,1.14-.38.4,0,.78.12,1.14.36v.84c-.38-.36-.78-.54-1.2-.54-.23,0-.43.06-.58.16-.16.11-.23.26-.23.45,0,.26.19.51.57.76.35.21.61.38.79.49.18.11.28.17.28.18.38.32.57.71.57,1.18"></path><path class="st2" d="M108.54,206.58c0,.4-.13.73-.41,1-.28.26-.62.4-1.03.4-.54,0-1.02-.16-1.44-.47v-.94c.39.49.84.75,1.36.75.26,0,.47-.07.63-.22.13-.13.21-.27.21-.42,0-.3-.2-.57-.57-.83-.18-.12-.36-.24-.53-.35-.19-.12-.37-.23-.55-.35-.38-.3-.57-.66-.57-1.06,0-.42.14-.75.42-.99.29-.25.67-.38,1.13-.38.41,0,.79.12,1.15.36v.84c-.38-.36-.78-.54-1.2-.54-.23,0-.43.06-.58.16-.16.11-.23.26-.23.45,0,.26.19.51.57.76.34.21.61.38.79.49.19.11.28.17.29.18.38.32.57.71.57,1.18"></path><polygon class="st2" points="21.69 128.68 21.69 43.73 109.07 43.73 109.07 138.55 21.69 128.68"></polygon><path class="st3" d="M108.46,119.95c-1.65.22-4.93.57-5.33.59-.5.03-2.03.23-2.77.38-.28.06-1.68.02-1.68.02,0,0-4.86-.16-5.97-.17-1.11-.02-3.06-.83-4.86-1.7-1.8-.87-9.89-4.45-10.44-4.59-.55-.14-.57-.64-.57-.64,0,0-.64-5.89-.64-6.09s.17-.33.17-.33c3.27-.47,4.5-3.96,4.85-5.06.35-1.09,2.39-7.91,2.39-7.91,0,0,2.35-7.6,2.54-8.24.19-.65.72-2.7,1-4.27.28-1.57.53-3.14.39-4.34-.14-1.2-.44-6.12-.44-6.12.53-.28,1.25-.3,1.97-1.6.73-1.3.75-2.91.75-2.91,0,0-.69-3.57-.97-5.09-.28-1.52-.1-2.35-.1-2.35.75-2.89.71-5.04.71-5.04,0,0-.39-4.6-.44-5.67-.04-1.07-.05-5.1-.05-5.1,0,0-.04-.48-.34-.75-.3-.26-2.73-3.22-2.8-3.31-.07-.09-.16-.28-.16-.28.36-.41.21-.95.21-.95,0,0-.85-2.9-.9-3.45-.06-.55-.59-.93-.59-.93,0,0-3-1.99-3.06-2.03-.06-.05-.29-.15-.46-.11-.17.03-2.94.56-3.47.73-.53.16-.83.28-.92.23-.09-.05-.37-.81-.37-.81,1.09-1.55.02-2.08.02-2.08,0,0-.55-.07-.39-.6.16-.53-.83-.71-.83-.71-.92-.16-4.18-1.06-4.92-1.45-.74-.4-1.23-.12-1.23-.12,0,0-.5.28-.81.49-.3.21-.53.12-.86-.62-.32-.74-1.5-.62-1.5-.62l-5.93.48s-1.82.07-2.47-.12c-.65-.18-1.43.21-1.43.21,0,0-.92.02-1.34-.03-.41-.04-.95.05-.95.05-.16.07-1.06.42-1.31.16-.25-.25-.88-.14-.88-.14,0,0-1.99.51-2.65.6-.67.09-1.16.39-1.16.39,0,0-1.66,1.02-2.6,1.66-.95.65-1.36.65-1.36.65,0,0-1.94.16-2.86.09-.92-.07-1.55.34-1.55.34,0,0-1.48,1.18-2.07,1.43-.6.25-.65,1.34-.65,1.34-.07,1.61-.67,1.92-.67,1.92-2.52.51-3.4,2.06-3.4,2.06-1.04,1.24-5.1,11.1-5.1,11.1,0,0-.49,4.57-.55,5.26-.07.69-.66,1.28-.9,1.45-.24.17-.24.87-.24.87,0,0-.04,2.45-.14,3.53-.1,1.08.66,3.46.66,3.46-.14,1.42-.21,2.84.07,3.43.28.59,3.11,3.7,3.6,4.47.49.76,1.14,1.94,1.14,1.94,0,0-.07,4.02-.04,5.92.04,1.9.87,2.56,1.07,3.6.21,1.04,3.46,6.02,3.46,6.02,0,0,1.32,4.23,1.42,5.71.1,1.49-.52,12.19-.59,12.6-.07.41-2.14,6.09-2.14,6.09-.83.48-5.58,2.87-5.75,2.91-.17.03-.34-.15-.34-.15-1.91-2.22-4.81-5.92-5.63-6.14v18.62l86.15,9.73v-17.92Z"></path><path class="st0" d="M100.55,120.76c-.5.09-1.87.17-1.87.17,0,0-4.86-.16-5.97-.17-1.11-.02-3.06-.83-4.86-1.7-1.8-.87-9.89-4.45-10.44-4.59-.35-.08-.49-.32-.54-.48.26,1.79.53,3.34.67,4.17.43,2.49.56,3.7-.27,5.77-.69,1.71-1.74,5.52-.35,6.2,2.11,1.03,11.49-5.87,11.49-5.87,0,0,2.58-2.11,6.22-1.69,3.33.39,12.57,2.28,13.83,2.66v-5.33c-.42-.05-6.86.66-7.9.85"></path><path class="st0" d="M69.73,86.83c-.25.39-1.43,1.78-2.21,1.18-.47-.36-1.52-2.75-2.86-4.92-1.28-2.08-2.88-3.93-2.95-4.13-.08-.24-.08-1.07.66-1.11.74-.05,3.14-.14,3.14-.14l2.77-.14s1.39-.23,1.85,1.85c.46,2.08,1.02,2.93,1.2,3.6.18.67-.96,2.82-1.6,3.81M73.59,50.24c.37-1.06.97-1.85,1.48-2.03.57-.21.32.51.74.78.41.28,1.06,1.06-.28,1.2,0,0-.6-.19-.46.79.14.97.09,2.12.37,2.54.28.42.92,1.66-.51.46,0,0-.65-.28-.51-1.15.14-.87-.51-1.01-.51-1.01,0,0-.69-.51-.32-1.57M78.77,49.69c.51.32,3.37.74,4.1,1.06.74.32.58,1.78-.15,2.21-.23.14-.87-.68-1.37-.91-.51-.23-1.94-.7-2.13-.84-.18-.14-.46-.41-1.89-1.75-1.43-1.34.92-.09,1.43.23M77.79,103.63c-2.23.56-5.66-.55-5.66-.55-1-.27-1.43-.6-1.81-1.09-.39-.49-.21-1.15.1-1.36.31-.21,1.39-.39,1.39-.39,0,0,2.9-.54,4.17-.8,1.27-.26,3.06-.58,3.06-.58,1.46-.13,2.32-.12,1.98-1.55-.1-.42-1.29.1-1.73.13-1.53.07-3.47-.91-4.51-.87-1.04.03-.62-1.11-.25-1.19.36-.09,3.94-.32,5.12-.5,1.18-.17,1.35.07,1.35.07.9.86,1.32.11,1.4.01.13-.15.45-1.66.45-1.66.24-1.15-1.94-.38-2.25-.28-.31.11-.73-.14-1.39-.35-.66-.21-.52-.9,0-.93.52-.04,1.04-.24,1.11-.59.07-.34.45-1.07.83-1.07s2.29-.28,2.29-.28c1.08-.34.29-1.54-.36-1.99-.65-.44-.73-.99-.73-.99,0,0-1.22-6.54-1.34-7.45-.13-.97-1.5-7.95-2.05-9.8-.55-1.85-1.85-2.49-4.7-3.32-.58-.17-1.86-1.43-2.82-2.08-.85-.56-1.58-2.66-1.53-3.08.12-.92-.98-2.73-.23-3.21,1.49-.94,4.16.46,5.42-.28.69-.41.43-1.12,2.15-1.72.39-.14,2.78.09,3.44.12.98.04,2.83.45,4.12-.2.74-.38,2.08.65,2.06,1.81-.06,3.43.92,2.23.92,2.23.57,1.72.64,1.06,1.08,2.09,0-.01,0-.04-.01-.05-.28-1.52-.1-2.35-.1-2.35.75-2.89.71-5.04.71-5.04,0,0-.39-4.59-.44-5.67-.04-1.07-.05-5.1-.05-5.1,0,0-.04-.48-.34-.75-.3-.26-2.73-3.22-2.8-3.31-.07-.09-.16-.28-.16-.28.36-.41.21-.95.21-.95,0,0-.85-2.9-.9-3.45-.06-.55-1.09-1.52-1.09-1.52,0,0-2.5-1.4-2.56-1.44-.06-.05-.29-.15-.46-.11-.17.03-2.94.56-3.47.73-.53.16-.83.28-.92.23-.09-.05-.37-.81-.37-.81,1.09-1.55.02-2.08.02-2.08,0,0-.57-.1-.41-.63.16-.53-.81-.68-.81-.68-.92-.16-4.18-1.06-4.92-1.45-.74-.39-1.23-.12-1.23-.12,0,0-.5.28-.81.49-.3.21-.53.12-.86-.62-.32-.74-1.5-.62-1.5-.62l-5.93.48s-1.82.07-2.47-.12c-.65-.19-1.43.21-1.43.21,0,0-.92.02-1.34-.03-.41-.04-.95.05-.95.05-.16.07-1.06.42-1.31.16-.25-.25-.88-.14-.88-.14,0,0-1.99.51-2.65.6-.67.09-1.16.39-1.16.39,0,0-1.66,1.02-2.6,1.66-.95.65-1.36.65-1.36.65,0,0-1.94.16-2.86.09-.92-.07-1.55.34-1.55.34,0,0-1.48,1.18-2.07,1.43-.6.25-.65,1.34-.65,1.34-.07,1.61-.67,1.92-.67,1.92-2.52.51-3.4,2.06-3.4,2.06-1.04,1.24-5.1,11.1-5.1,11.1,0,0-.49,4.57-.55,5.26-.07.69-.66,1.28-.9,1.45-.24.17-.24.87-.24.87,0,0-.04,2.46-.14,3.53-.1,1.08.66,3.46.66,3.46-.14,1.42-.21,2.84.07,3.43.28.59,3.11,3.7,3.6,4.47.49.76,1.14,1.94,1.14,1.94,0,0-.07,4.02-.04,5.92.04,1.9.87,2.56,1.07,3.6.21,1.04,3.46,6.02,3.46,6.02,0,0,1.32,4.22,1.42,5.71.1,1.49-.52,12.19-.59,12.6-.07.41-2.14,6.09-2.14,6.09-.83.48-5.58,2.87-5.75,2.91-.05,0-.09,0-.14-.01.67,1.61,4.28,5.94,4.5,6.21.24.29.63.67.63.67.18.23,4.66,2.55,6.26,2.46,1.59-.08,1.52.19,2.34.1.81-.09,9.76,4.44,11.65,3.5,2.16-1.07-2.6-3.03-2.2-5.58.39-2.48,1.63-2.09,4.52-2.82,3.08-.78,7.31-3.1,7.69-3.29,5.52-2.61,9.7-7.83,9.7-7.83,1-1.14,1.15-1.24,2.98-1.6.05-.13.15-.21.15-.21,1.27-.18,2.24-.83,2.96-1.61,2.84-3.46-.12-2.64-1.54-2.17"></path><path class="st10" d="M85.95,67.92c-.1.03-.88.19-1.42,1.12-1.18,2.05-.94,2.92-.94,2.92l.3,3.93s.1.55.62.12c.52-.43,1.73-1.64,1.73-1.64,0,0-.16.29-.95.14-.8-.16-.71-.19-.71-.19,0,0-.19-.33-.03-.47.13-.12.08-.1,1.49-.8,0,0,.34-.31.43-.47.15-.24.4-.76.4-.76l.24-.12c0-.14-.01-.22-.01-.22.53-.28,1.25-.3,1.97-1.6.17-.31.3-.63.41-.95,0,0-1.97-.94-2.59-.98-.42-.03-.66-.1-.94-.03"></path><path class="st10" d="M81.56,53.73c.17.3.58.85.6,1.06.03.21-.3.41-.53.23-.23-.19-.35-.53-.65-.7-.3-.16.14.49-.18.58-.32.09-.3.02-1.11-.28-.81-.3-1.96-.87-2.31-.99-.35-.12-1.62-.72-1.62-.72,0,0-.69-.21-.12-.67.58-.46.76-.55.79-.16.02.39.21.51.37.46.16-.04.21.02.17.16-.03.14.24.26.44.21.2-.06.96-.22.99-.29.03-.07.16-.25.16-.3s.18-.21.28-.24c.09-.04.25-.15.52.15.26.3.71.95,1.04,1.02.32.07.82-.1,1.15.47"></path><path class="st10" d="M52.97,42.78c-.28-.41,1.07-.93,1.14-.48.07.45.04.52.73.73.69.21.14.73-.14,1.04-.28.31-.52.93.62.52,1.15-.42.49,1.07.42,1.59-.07.52-.69.1-.79-.48-.11-.59-.35-.66-.45.2-.1.87-.69.8-.97.73-.28-.07-.31-.76-.52-1.52-.21-.76-.38-1.07,0-1.49.38-.41.08-.66-.03-.83M57.42,50.17c.37-.37,1.61-.97,1.34.05-.28,1.02.41.6.83,1.11,0,0-.35,1.25-1.27,1.29-.92.05-1.45-.05-2.42.28-.97.32-2.68.74-1.62-.09,1.06-.83,1.48-.97.92-1.3-.55-.32.04-1.24.88-1.06.83.19.97.09,1.34-.28M76.72,35.13c.23.83-.28,1.43.09,1.52.37.09,2.45.83,1.57-.23-.87-1.06-.55-1.57.46-.88,0,0-.05.37.92,1.11.97.74,1.89.88,1.48,1.29-.41.42-.83-.05-1.01.28-.19.32.32.78.09,1.2-.23.42-.56,1.85-.37,2.26.18.41-.87,1.8-2.22,2.12-1.34.33-1.15-.18-.92-.92.23-.74.51-.18.28-.92-.23-.74-.28-.87.05-1.57.32-.69.51-.74.23-1.48-.28-.74-.97-.5-1.02-1.11-.05-.6.09-1.89-.09-2.12-.19-.23.23-1.39.46-.55M28.2,116.46c.74,1.29,3.37,7.95,13.54,9.64l4.85.92s-3.71-1.61-6.71-3.46c-3-1.85-3.23-2.2-3.23-2.2,0,0-2.68-1.85-.79-5.03,1.9-3.18,5-1.27,5.1-1.23,1.39.45,3.45.75,4.8.4,1.35-.34-.3-2.72-.93-3.79-.62-1.07-.86-1.82-.86-2.09s0-1.35.28-1.85c.5-.94,3.29-2.7,12.26-.28,2.85.77,6.55,2.55,5.86,4.43,0,0-.38.79-1.29,1.72-1.73,1.77-3.39,3.11-1.53,2.88,1.22-.15,2.86-.66,5.28-1.93,2.67-1.4,4.41-2.77,5.6-3.65,2.39-1.79,2.61-2.4,3.54-2.82,1.22-.56,1.14-.21,2.23-.38,0-.05.02-.11.02-.12.05-.18.39-.23.39-.23,1.01-.15,1.87-.73,2.39-1.26-.25-.07-.55-.13-1.05-.2l-1.7-.24s-9.05-1.21-9.35-3.24c-.1-.7.26-3.84.38-4.11.12-.26.28-.55.78-.66.5-.11,1.72-.66,2.14-1,.47-.38,1.12-.65,1.21-.69.29-.14.87-.32,1.6-.49.83-.2,6.19-1.34,6.63-1.41.44-.07-.21-.43-.79-.69-.58-.25-1.01-.91-.53-1.47.48-.55,1.52-1.15,1.52-1.15,0,0,.83-1.27,2.24-1.22,1.41.05,1.29.39,1.64.07,0,0,.84-.67-.52-1.61-.91-.64-3.39-.06-4.96.34-1.16.29-4.07.54-3.9-.8,0,0,.42-.89.92-1.43.63-.68,1.16-.87.34-1.95-.72-.95-1.83-1.84-2.81-2.49-.84-.57-1.45-.86-1.29-.37.63,1.83.66,2.43.34,3.18-.18.44-2.72,5.18-3.85,5.32,0,0-.07.06-.7-.34-1.12-.72-2.76-2.08-4.42-3.4-1.66-1.31-7.08-4.64-7.45-6.53-.42-1.5.13-2.92-1.01-4.68-.9-1.39-.58-1.57,0-1.66.58-.09,1.59-.53,1.82.07.23.6.02,1.77.97,2.19.95.41,3.19.74,3.67.71.48-.03,2.72-.3,3.62.19.9.48,2.54.55,3.03.58.48.02,1.8-.05,2.03-.58.23-.53-.86-.69-1.57-.74-.71-.05-1.27-.4-.19-.72,1.08-.32,1.84.32,2.18.05.21-.16.13-1.96.41-1.43.28.53-.35,4.38-.14,4.73.21.35.71.16,1.23-.63.49-.74,1.97-1.86,2.78-2.09.81-.23,2.29-.23,2.73.02.44.25,1.18,2.14,1.5,1.85.37-.33.48-1.38.56-2.36.08-.86.09-.69-.13-2.75-.07-.68-.27-2.15-1.55-3.18-.43-.34-2.35-.92-4.77-.8-1.42.07-6.88,1.24-8.19,1.22-1.31-.02-2.63-.46-2.84-1.87-.21-1.41-.08-6.28-5.84-9.41-.63-.35,1.43-1.3,2.06-1.04.62.25,3.63-.71,3.71-.7,3.12.52,4.12.57,5.16-1.26.16-.28.06-1.89.72-2.3.66-.42.97-1,.66-1.21-.31-.21-1.35-.34-1.07-.8.28-.45,2.11-.73,2.11-1.04s-1.1-.3-1.2-.41c0,0-.16-.19.14-.3.29-.1.24-.55-.14-.67-.38-.12-.86.02-1.31.33-.45.32-.85.28-1.07.23-.23-.05-.69-.26-1.19-.12-.5.14-.59-.28-.02-.71.57-.43.76-.69.94-.91.17-.23.69-.3.91-.1.23.19.92-.17.95.19.04.37.76.78,1.05.62.3-.16.64-.22.85.14.21.36.47,1.21,1.39,1.4.92.19,2.2.54,2.01,1.23-.19.69-1.14.64-1.52.71-.38.07-1.66.55-1.9.99-.24.44-.61.6.17,1.04.78.43,3.87.95,4.41,1.14.54.19,1.91,1.08,2.42.91.57-.18.65-.27.84-.32.29-.08.61-.14,1.19-.14s1.57-.02.55-.39c-1.01-.37-1.75-.53-1.92-.6-.16-.07-.34.23-.07.51.28.28.05.37-.39.28-.44-.09-2.31-.99-2.72-2.08-.42-1.08-.44-2.61-.14-3.41.3-.81.76-.6.76-.6,0,0,.31-.12.18-.32-.09-.14-.26-.42.02-.44.28-.02.32-.69,0-.86-.32-.16-.86-1.27-1.15-1.33-.3-.07-1.87-.99-.44-.62,1.43.37,1.55.3,1.61.14.07-.16.67-.37.74-.05.07.32.19.79-.12.76-.3-.02-.71-.05-.41.56.3.6.32.65.41.9.09.25.58.12.88.07.3-.04.53.28.56.51.02.23.46.21.99.14.53-.07,1.04.25,1.33.39.3.14,1.27.53,1.69.53s1.11-.23.32-.51c-.78-.28-1.13-.12-1.2-.49-.07-.37.12-.53.53-.62.41-.09.67-.19.88-.42.21-.23.48-1.03.9-.39.41.65.83,1.41.95,1.41s.41.35,1.04.37c.62.02,1.22-.02,1.41.14,2.33,1.86,2.56,3.92,3.36,4.18.33.11-.17-1.46-.12-4.61,0-.36.08-.84.05-1.32-.02-.48-.02-.88-.02-1.15s-.21-1.2-.92-.3c-.71.9-.71.69-.78.76-.07.07-.12.3-.67.12-.56-.19-.51-.49-.79-.67-.23-.15-.71-.33-1.02-.81-.24-.37-.14-.62-.44-.81-.3-.19-.6-.28-.44-.44.16-.16.72-.37.69-.49-.02-.11-1.11-.02-1.48.46-.37.48-.42.95-1.08,1.02-.67.07-1.55.13-1.57-.21s-.25-.97.07-.99c.32-.02.67.23.88-.12s.51-.94.81-1.06c.3-.11.09-.32.87-.11.79.21,1.11.21,1.64.21s.37-.71.65-.9c.28-.18.16-.32-.71-.49-.87-.16-1.24-.46-.78-.53.46-.07.88,0,.88-.34s.02-1.78.02-1.92-.12-.67-.41-.76c-.3-.09-.53-.37-.05-.81.49-.44.69-.53.5-1.25-.16-.63-.36-1.22-.48-1.89-.89-.59-2.3-1.52-2.34-1.55-.06-.05-.29-.15-.46-.12-.17.03-2.95.57-3.48.73-.53.16-.83.28-.92.23-.09-.04-.37-.81-.37-.81,1.08-1.55.02-2.08.02-2.08,0,0-.76-.07-.6-.6.16-.53-.7-.59-.7-.59-.93-.16-4.32-1.07-5.06-1.46-.74-.39-1.01-.23-1.01-.23,0,0-.77.39-1.07.6-.3.21-.53.12-.86-.62-.32-.74-1.5-.62-1.5-.62l-5.67.37s-1.99.16-2.64-.03c-.65-.18-1.26.13-1.26.13,0,0-.93.07-1.35.02-.41-.04-.94,0-.94,0-.16.07-1.21.5-1.47.25-.25-.26-.88-.14-.88-.14,0,0-1.84.42-2.51.51-.67.09-1.15.4-1.15.4,0,0-1.66,1.02-2.61,1.66-.95.65-1.36.65-1.36.65,0,0-1.93.19-2.86.12-.93-.07-1.55.32-1.55.32,0,0-1.48,1.18-2.07,1.43-.6.25-.65,1.34-.65,1.34-.07,1.61-.67,1.91-.67,1.91-2.51.51-3.39,2.05-3.39,2.05-1.04,1.25-5.1,11.11-5.1,11.11,0,0-.49,4.57-.55,5.26-.07.69-.66,1.28-.9,1.45-.24.17-.24.87-.24.87,0,0-.03,2.46-.14,3.53-.11,1.07.66,3.46.66,3.46-.14,1.42-.21,2.84.07,3.43.28.59,3.11,3.7,3.6,4.46.48.76,1.14,1.94,1.14,1.94,0,0-.07,4.01-.04,5.92.04,1.91.86,2.56,1.07,3.6.21,1.04,3.46,6.02,3.46,6.02,0,0,1.31,4.22,1.42,5.71.1,1.49-.52,12.19-.59,12.6-.07.42-2.14,6.1-2.14,6.1-.83.48-5.47,2.97-5.64,3.01-.17.03-.56.11-.56.11-.04-.09-.22-.23-.26-.32-.09.39.21.49.43.88"></path><path class="st10" d="M84.1,53.77s-1.75.77-.46,1.03c1.29.25,1.43-.78,2.46-.17,1.03.6,1.89,2.23,1.46.69-.43-1.55,0-1.55-.95-1.89-.94-.34-2.26-.6-2.52.34"></path><path class="st10" d="M76.89,114.03s2.21,4.46,3.54,7.76c.95,2.36,2.78.71,3.76-1.06,1.38-2.49.21-3.23-.78-3.68-.99-.45-6.52-3.01-6.52-3.01"></path><path class="st6" d="M88.34,69.68c-.18.14-.05.76-.42.86-.37.09-2.32.21-3.12.06,0,0-.73.13-.83.42-.1.3-.11.71-.11.71l-.02.43s.03.76.13,1.01c.13.33.14-.62.19-.82.04-.19.17-.38.27-.15.09.23.3.84.45-.21,0,0-.06-.33.39-.48.45-.15,1.24-.32,1.44-.15.2.16.39.12.39.12.53-.28,1.25-.3,1.97-1.6.04-.06.07-.13.1-.18-.4-.05-.75-.08-.82-.02"></path><path class="st6" d="M79.16,97.84c-.44.15-1.02.01-1.93-.18-2.46-.52-4.01-.75-4.01-.75,0,0-1.97.26-2.32.4-.35.14-.24.38.02.42,0,0,1.06-.22,1.02.29-.05.51,0,1.11.83,1.2.83.09,2.85-.25,3.6-.36,1.16-.17,3.36-.43,3.96-.69.76-.33.92-1.03-1.16-.34"></path><path class="st6" d="M81.84,93.69c-.17-.45-.99-.28-1.1-.25-.29.09-.51.44-1.48.32-.77-.21-1.64-.47-1.93-.46-.44.02-3.97.38-4.46.1-.47-.26-.81-.61-.9-.89-.09-.29-.59-.58-1.18.08,0,0-1.48,1.88-1.79,2.39-.47.78-.96,1.79-.58,1.76.37-.03,2.03-.74,2.58-1.03.63-.34,3.22-.79,3.77-.84.55-.05,3.4-.53,3.4-.53,0,0,1.18-.09,2.03-.12.44-.04.67.11.72.11.1,0,.78.46.92.28.13-.17.19-.47.01-.92"></path><path class="st6" d="M77.73,71.62c-.14-.39-.46-.6-1.32-1.36-.85-.76-4.08-.93-4.29-.95-.21-.02-2.37.24-2.37.24-1.63.17-4.68.82-4.68.82-1.11.41,1.9.38,3.78.34.73-.02,1.43-.02,2.18.46.48.31-.17.27-.25.4-.38.08-.95.22-1.85.52-1.85.61-3.39.99-1.99.3.41-.2,1.67-1.22-.52-.97-2.1.25-4.12,1.17-4.43,1.45-.31.28-1.14,1.01-1.73,1.18-.59.17-3.95-.23-1.95.57,0,0,2.04.76,3.05.71,1.04-.05,2.41-.19,3.4-.52,1-.33,1.44-.46,1.66-.55.43-.18.95-.32,1.52-.73.35-.24,1.3-.38,1.94-.63.43-.05.43.25.5.4.11.25.18.67-.05,2.86-.23,2.19.23.88,1.32.21,1.08-.67,3.87-2.24,4.73-2.59,1.44-.57,1.48-1.77,1.34-2.17"></path><path class="st6" d="M50.64,55.56c-.55-.42-1.88-.72-.96.54,0,0,.6.55.6,1.06s.46,1.02,1.2.88c.74-.14,1.89-.74,1.89-.74,0,0,.89-.25,1.34-.38.57-.17,1.71-.63,1.99-1.09.28-.46.6-1.11.79-1.25.19-.14,1.64-.99,2.02-1.06.38-.07.93-.24,1.07-.59.14-.34.24-1.14.38-1.38.14-.24.73-1.14.28-1.35-.45-.21-1.21-.14-1.35.42-.14.56,0,3.29-2.18,3.05-2.18-.24-3.43.14-3.43.14,0,0-1.14.87-1.14.34s.21-1.07-.34-.93c-.55.14-.76.04-.9-.25-.14-.28-.73-.65-.76.52-.03,1.18.38.62.49.79.11.18.42.87.24,1.08-.17.21-.66.62-1.21.21"></path><path class="st6" d="M64.35,51.04c-.11-.24-.26-.24-.29-.1-.03.14-.33.24-.33.24,0,0-.45-.24-.83-.19-.38.05-.26.99-.19,1.32.07.33.29.36.61.52.31.16,0,.45-.29.89-.3.45-.28.58-.09.67.19.09.29.5.29.5.05.76.24.67.52.57.28-.1,1.54-.61,1.34-2.03-.06-.46-.15-.61.21-.76.36-.16-.07-1.02.17-1.43.24-.42,1.73-.9,1.73-.9.31-.02.45.05.54-.09.09-.14-.29-.26-.45-.27-.16-.02-.9-.04-1.96.22-1.05.26-.53.42-.61.75-.07.33-.26.34-.36.1"></path><path class="st6" d="M50.54,44.76s-1.67.87-1.9,1.16c-.37.46.12,1.89.12,3.15,0,.76,2.29.28,2.98.8.7.52,2.06-.3,1.61-.23-.45.07.17.34.55.62.38.28.69-.28,1.52-1.28.83-1,.9-.21.94.21.03.42.14.45.73.31.59-.14,1.84-1.21,2.5-1.62.66-.42-.11-.8-.62-1.45-.52-.66-.9-.04-.97.17-.07.21-.45.24-.76.38-.31.14-.38.17.21.62.59.45.1.87-.38.87s-.28-.49-.66-.73c-.38-.24-.86-.1-1.21-.21-.34-.1-.48.28-.66.49-.17.21-.73-.07-.97-.28-.24-.21-.31-.41-.76-.66-.45-.24-.8-1.14-.8-1.52s-.34-1.07-.52-1.42c-.17-.34.38-1.07.38-1.07.56-.69.38-.73-.69-.52-1.07.21-1.14.9-.52,1.49.62.59-.11.73-.11.73"></path><path class="st6" d="M74.56,40.61c-.76.11-1,.38-.62.97.34.52.83.76.76,1.52-.07.76.07.66.38.69.31.04.52.56.45,1.07-.07.52-.77,1.94-.38,1.97.38.04.9-.21,1.04-.17.14.03,1.77-.04.94-.31-.83-.28-1.49-.9-1.04-1.15.45-.24,1.66-.66,1.04-.83-.62-.17-.94-.24-1.04-.69-.1-.45.04-.97-.07-1.69-.11-.73-.7-1.49-1.46-1.39"></path><path class="st6" d="M85.89,46.94c-.42.1-.36.47-.71.09-.35-.38-.26-.17-.56-.47-.27-.26,0-.13-.6-.49-.31-.18-.14-1.14-.38-1.14s-.55.04-.69-.31c-.14-.35-.49-.38-.97.17-.48.55-.21.49-.87.55-.66.07-1.94-.34-2.28-.2-.35.14-.59.24-.73.14-.14-.1-.52-.38-.8-.1-.28.28-.73.28-.21.45l1.32.49s.97.35.76.52c-.21.17-.73.21-1.01.24-.28.03-1.56-.07-1.21.59.34.66.76.69.97.55.21-.14.9-.45,1.18-.45s1.49-.8,1.56-.97c.07-.17,0-.45.31-.56.31-.1.94-.59.97.04.03.62.21,1.42.49,1.49.28.07.83-.04.93.17.11.21.04.55.62.59.59.03,1.52,0,1.73-.28.21-.28.59-1.21.17-1.11"></path><path class="st6" d="M79.24,36.65c-.28.37-.21.81.18.92.39.12.53.39.79.62.25.23.25.21.41.28.16.07.99.23,1.18.32.18.09-.44.44-.53.51-.09.07-.71-.14-.71-.14-1.29-.69-.9.51-.85.69.04.19.04.56.04.56v.16c0,.16-.3,1.13-.28,1.73.02.6,1.08.12,1.43-.16.34-.28.32-.19.99-.26.67-.07.53-.81.62-1.02.09-.2.12-.67.18-.94.07-.28.12-.88.12-.88-.02-.25-.25-.18-.65-.23s-.23-.37-.23-.37c0,0,.76-.11,1.29-.11s1.27-.92,1.13-1.23c-.14-.3-.83-.19-1.27-.19s-.25-.37-.69-.99c-.44-.62-1.28-1.71-1.4-1.53-.12.19-.01,1.76-.49,1.69-.49-.07-.99.18-1.27.55"></path><path class="st6" d="M84.96,34.99s0,.05.01.07c0-.03,0-.05-.01-.07"></path><path class="st6" d="M77.12,33.69c.66.21.9.11,1-.11.1-.21.41-.76.66-.62.24.14.42.45.21.69-.21.25-1.24.9-.48,1.07.76.17.76,0,.9.35.14.34.31-.07.69-.52.38-.45,1.14-.97.31-1-.83-.04-.76-.52-.76-.9,0-.19-.02-.41-.03-.57-.83.17-1.76.36-2.04.44-.5.15-.79.25-.9.23,0,.38.09.83.44.94"></path><path class="st6" d="M86.25,45.06c1.66.51,1.72-1.95,2.71-1.34,0,0-.04-.49-.34-.75-.3-.27-2.73-3.22-2.8-3.31-.07-.09-.16-.28-.16-.28.36-.41.21-.95.21-.95,0,0-.79-2.7-.89-3.38.13.99.28,2.32.15,2.57-.21.41-1.07,0-.62.97.45.97,1.33,6.33,1.75,6.46"></path><path class="st6" d="M70.71,105.67c-.37-.05-1.39.14-6.32-.92-4.94-1.06-9.88-3.97-10.71-4.34-.83-.37-2.2-1.29-2.2-1.29-.49-.32-.78-.37-.78-.06s1.11,1.44,1.72,2.12c2.55,2.81,4.84,4.39,5.62,4.81,2.64,1.44,4.67,2.22,5.24,2.6,1.72,1.12,1.76,1.52,3.08,2.6.17.14.38.87.58.99,1.82-1.54,3.15-3.51,3.45-3.79,1.95.03,3.21-.2,4.09-.36.68-.1,1.31-.23,1.72-.29,0-.02.03-.16.07-.2.04-.05.08-.04.11-.08-2.27-1.77-5.33-1.74-5.66-1.78"></path><path class="st6" d="M76.76,89.58c-2.18-1.04-3.32-1.21-3.8-1.22.07-.23.14-.47.32-.73.53-.76.41-1.68.41-1.68-.3-.59-1.08-.13-1.15-.04-.07.08-.32.46-.48.84-.47,1.12-2.14,2.47-2.18,2.58-.25.62.71,1.06,1.03.99.26-.06.5-.16.72-.3,0,0,.01,0,.03,0,1.29-.43,5.67.26,5.67.26,0,0,1.11.11-.55-.69"></path><path class="st6" d="M66.58,28.11c-.4-.03-.14.32-.14.32l.12.09c.12.09.25.69.25.69,0,0,.21.26.14,1.34-.07,1.08-.81.51-.97.42-.16-.09-.19-.28-.44-.37-.25-.09-.69.02-1.06-.14-.37-.16-.65-.44-1.25-1.02-.6-.58-.62-.42-.02-.65.6-.23.21-.35.05-.79-.16-.44-.07-.44.39-.65.46-.21-.05-.32.12-.53.16-.21,1.98-.25,1.98-.25,0,0,.44.09.95.37.51.28.58.76.58.87s-.3.3-.69.28M57.76,37.71c-.14.42-.46-.07-.41-.44.04-.37-.67-.53-.86-.9-.18-.37-.83-.55-1.15-.58-.32-.02-.37.02-.6-.12-.23-.14-.61.03-1.24-.55-1.32-1.23.25-1.06.44-.99.18.07,1.11.16,1.29.41.19.25,1.02.57,1.29.69.28.12.6.65,1.08,1.14.48.49.3.92.16,1.34M47.76,37.34c0,1.18-.14,2.36-.48,2.84-.34.49-1.18,3.53-2.01.63-.83-2.91-.9-3.4-.55-3.67.35-.28.83-1.87.83-2.14s.97-.49,1.66,0c.69.48,1.24.55,1.31.35.07-.21.42.14.42.14-.14.76-1.18.69-1.18,1.87M34.99,66.43c0,.24.31.45.52.48.21.04.38-.1.73.38.34.49.93.21,1.24.35.31.14.35.59.66.93.31.35.69.42,1.11.97.41.56.39.88.08,1.02-.31.14-1.26-1.35-1.52-1.55-1.29-.97-2.56-.86-3.29-.69-.3.07-1.65,1.59-1.57,1.2.06-.28.32-1.13.15-1.47-.17-.35-.94-1.18-.94-1.18-.73-1.32.35-1.07.62-.94.28.14.48.62.93.11.45-.52,1.28.14,1.28.38M42.36,69.58c.62-.28.9.55,1.14.9.24.35-.31,1.32-.41,1.53-.11.21-.04.41.21.65.24.25-.17-.17-.45-.21-.28-.03,0,.49-.34.63-.34.14-.52-.14-.52-.45s-.24-.45-.41-.59c-.17-.14-.04-.55.03-1.24.07-.69-.21-1.11-.21-1.11-.21-.69.34.17.97-.1M73.11,29.35c1.73-.11,2.04-.17,2.04-.17,0,0,.31.01.59.03.11-.48-.85-.66-.85-.66-.92-.16-4.18-1.06-4.92-1.45-.74-.39-1.23-.12-1.23-.12,0,0-.5.28-.81.49-.3.21-.53.11-.86-.62-.32-.74-1.5-.62-1.5-.62l-5.93.48s-1.82.07-2.47-.11c-.65-.19-1.43.21-1.43.21,0,0-.92.02-1.34-.02-.41-.05-.95.04-.95.04-.16.07-1.06.42-1.31.16-.25-.25-.88-.14-.88-.14,0,0-1.99.51-2.65.6-.67.09-1.16.39-1.16.39,0,0-1.66,1.02-2.6,1.66-.95.65-1.36.65-1.36.65,0,0-1.94.16-2.86.09-.92-.07-1.55.35-1.55.35,0,0-1.48,1.18-2.07,1.43-.6.25-.65,1.34-.65,1.34-.07,1.61-.67,1.92-.67,1.92-2.52.51-3.4,2.05-3.4,2.05-1.04,1.25-5.16,11.65-5.16,11.65,0,0-.51,4.08-.58,4.77-.07.69-.57,1.23-.82,1.4-.24.17-.28.88-.28.88,0,0-.08,2.42-.18,3.5-.12,1.32.63,3.54.63,3.54-.14,1.42-.23,2.81.09,3.52.26.59,3.11,3.7,3.6,4.46.48.76,1.14,1.91,1.14,1.91,0,0,0,3.73-.02,5.74-.02,2.15.89,2.65,1.1,3.69.23,1.14,3.47,6.14,3.47,6.14,0,0,1.3,4.12,1.35,5.61.05,1.6-.49,12.15-.56,12.57-.07.41-2.06,6.09-2.06,6.09-.83.48-5.58,2.87-5.75,2.91-.17.04-.34-.15-.34-.15-1.29-3.51-3.44-6.9-5.63-9.78v3.76c.08.08.15.14.21.2,1.62,1.48,6.15,8.83,8.79,10.07,3.4,1.59,2.31-.6,2.83-2.42.52-1.81,2.16-5.52,2.84-7.69.69-2.17,1.48-2.4,2.45-2.31.97.09,4.38.66,3.87-1.69-.51-2.35-2.06-5.96-2.99-9.76-.34-1.4-.71-3.61-1.36-5.6-.65-1.99,1.12-.18,2.29-.92,1.38-.86,1.86,2.27,2.53,3.21,1.95,2.75,2.68,3.26,3.56,4.09,1.15,1.09,1.58,1.28,1.58,1.28,0,0,1.35.58,1.39.07.05-.51-.61-.84-1.26-1.43-.74-.67-1.62-1.4-2.17-2.5-.56-1.11-2.81-2.31-3.11-7.41-.11-1.85.47-3.91.03-4.53-.29-.39-.19,1.25-.88,1.66-1.05.63-2.65,1.28-3.7-.11-1.15-1.52-2.86-3.23-3.14-3.51-.28-.28-4.36-4.28-2.32-5.2,2.03-.92,2.32.95,2.32.95,0,0,.52,2.14,1.34,2.83,1.72,1.43,2.09,1.19-.05-1.53-.79-1.01.47-2.37,1.02-1.9.55.46.95,1.79,1.81,1.69.63-.07.26-3.43,1.88-1.5,1.62,1.94,2.03,2.68,2.08,3.09.05.41.94.71,1.94.83.32.04,1.66.6,1.98.04.32-.55.92-2.54-.78-3.05-1.71-.51.83-1.75,1.61-2.4.79-.65,1.16-1.48,1.16-1.48,0,0,.74-1.06.74-1.48s-.55-.83-.69-1.29c-.14-.46-.51-1.06.32-.83.83.23,1.99-.69,2.26-.69s1.36-.63,1.25-.94c-.39-1.07.43-2.06,1.12-1.89.44.12,2.69-1.37-.17-1.97-2.86-.6-3.67.05-4.5.56-.83.51-1.53,1.57-.42,1.48,1.11-.09,4.34-.79,2.03.18-2.31.97-2.91,1.06-2.91,1.06,0,0-.97.37-.78,1.62.18,1.25-1.11.23-1.29.14,0,0-.65-.74-.92-.51-.28.23-.05.97.09,1.2.14.23,2.08,2.13,1.34,2.13s-2.49-.79-3.42-.79c0,0-.23.05.09-.69.32-.74,2.03-3,1.43-3.6-.6-.6-.65-1.11-1.89-.42-1.25.69-1.57.92-1.66.42-.09-.51-.18-1.2-.5-1.25-.33-.04-.56.79-.97.88-.41.09-1.48.51-1.52-.88-.05-1.38.09-2.17-.32-2.4-.42-.23-1.15-.51-1.8-.42-.64.09-1.52-.37-1.01-.88.51-.5.97-.18,1.24-.65.28-.46-1.2-1.57-1.61-1.29-.42.28-.97.37-.97-.14s.65-1.06,1.76-.69c1.11.37,1.89.28,2.08.05.19-.23,1.17-.26,1.68.76.51,1.02,2.06.95,1.78,1.64-.28.69-.23,1.47.23,1.89.46.41,1.8.56,2.4.56s1.94-.37,2.4,0c.46.37,2.4.88,2.63.41.23-.46,4.14-3.81.51-4.52-1.5-.29-1.52.74-1.93.65-.41-.09-.98-.15-1.02-.52-.05-.37-.97-.74-1.76-.74s-.74-.83.37-1.02c1.11-.18,1.06-.55-.09-.55s-2.17-.37-1.39-.97c.79-.6,1.62-.83,1.66-1.11.05-.28.83-1.85.92.23,0,0-.09.55.09.55s.51-.6.65-.65c.14-.05.65-.09.65-.09,0,0,1.36-.16,1.19-2-.17-1.83.31-1.52.45-1.8.14-.28,1.28-1.42,1.14-1.59-.14-.17-1.18.17-1.35.52-.17.35-.69.59-.87.38-.17-.21-.28-.97-.9-.49-.62.49.24.55.49.94.24.38-.35.26-.69.64-.34.38-1.08-.14-.8-1,.28-.87-.1-.71-.24-1.06-.14-.34-.62-1-.73-1.14-.1-.14-1.11-.24-1.39-.76-.28-.52-1.42-.94-1.07-.31.34.62.86,1.11.28,1.14-.59.03-1.01-.07-1.56.14-.56.21-1.66.04-1.18-.45.49-.49.07-.77-.49-.77s-.93-.62.55-.45c1.49.17,1.77-.52,2.22-.73.45-.21,1.49-1.18,1.87-1.18s4.38-1.41,4.02-2.21c-.69-1.49,4.95-5.86,5.43-4.93.49.94.17.9.07,1.21-.1.31-.24,1,.35.55.59-.45.7,1.45.91,1.21.21-.24,1.16.32,1.72.46.55.14,1.48-.54,1.83-.8.46-.34.73-.87.97-1.01.24-.14.38-.97.49-1.11.1-.14.69-.48.69-.48,0,0,.21-.04.31.34.1.38.24,1.59.48,2.04.24.45,1.49.69,1.73.38.24-.31.21-2.35,1.52-1.21,1.31,1.15,2.15-.76,2.22-.9.07-.15.1-.7.35-.77.24-.07.31-.24.69-.1.38.14.42-.31.69-.38.28-.07.38.73.66.97.28.24-.27,1.73-.72,2.11-.45.38-2.21.76-2.91.62-.69-.14-.8.62-1.07,1.25-.28.62-.77,1.7-1.87,1.46-1.11-.24-1.7-.56-1.7-.28s1.07,1.73.07,1.04c-1-.7-1.04-.97-.97-1.25.07-.28.28-1.28-.28-.83-.55.45-.9,1-1.35,1.56-.45.56-.5.12-.54-.05-.03-.17-.14-.78-.85-.31-.71.47-.68.35-.81.35s-.38-.04-.38.1.52.31.8.4c.28.09.71.28.74.48.03.21,1.23,1.33,1.77,1.51.53.17.99-.12,1.09-.38.11-.26.54-.59.78-.5.24.09.23.47.33.64.1.17.79.09,1.32-.17.52-.26.88-.26.1.52-.78.78.69.26.9.07.21-.19.95-.93.99-1.01.04-.07.87-1.07-.64-.08,0,0-.28.21-.36.05-.09-.16-.12-.55.64-.73.76-.17,1.37-.34,1.39-.24.02.1-.36.92-.33,1.06.03.14.17.34.38.19.2-.16.93-.33.74-.07-.19.26.42.45.68.32.26-.14.43-.78-.09-.82-.52-.04-.64-.26-.67-.56-.04-.29-.36-.5.03-.62.4-.12.35-.22.95-.14.6.09.54-.28.69-.23.16.05.07.21.36.33.29.12.57-.3.17-.56-.4-.26-.16-.73.16-.52.31.21.22,1.07.36,1.11.14.04.4.8.2.91-.21.12-.67,0-.62.51.05.51.58,1.43.55,1.8-.02.37-.14.53-.49.55-.34.03-.9-.62-.6-.69.3-.07.37-.51.02-.62-.34-.12-1.06.14-.42,1.13.65.99.93,1.13,1.09,1.08.16-.04.67-.39,1.18-.23.51.16,2.22.26,2.29-.04.07-.3-.6-.49-.92-.51-.32-.02-.18-.32.04-.39.23-.07.72-.12.81-.12s.42-.39.05-.65c-.37-.25-.79-.25-.79-.25,0,0-.37-.05-.16-.21.21-.16.28-.76-.28-.83-.56-.07-.83.32-.99.32s-.44-.18-.16-.44c.28-.25.41-.53.18-.6-.23-.07-.58-.28-.48-.49.09-.21.34-.32.95-.18.6.14.81.18,1.04.3.23.11.67-.55.32-1.36-.35-.81-1.57-2.08-.51-3.42,0,0,.14-.23.02-.46-.11-.23-.41-.74-.55-.94-.14-.21,1.57-.57,1.34-1.27-.23-.69-2.93-1.41-3.4-1.3-.46.12-.65.28-.69.88-.04.6-.28.78-.37.6-.09-.19,0-.51-.34-.24-.34.28-.81.53-.9.09-.09-.44-.21-.67.16-.67s.6-.14.6-.5.28-.77.37-1.02c.09-.26.3-1.13-.57-.21-.88.92-1.62,2.47-1.69,2.81-.07.34-.37.78-.37.3s.09-1.78.09-1.97.07-.76.3-.94c.23-.19.76-.81.62-1.02-.14-.21-.41-.12-.92.32-.51.44-.72,1.13-.72,1.36s-.35.35-.78.95c-.44.6-.53,2.26-.99,2.33-.46.07-1.43-.21-.6-1.13.83-.92,1.43-1.85,1.43-1.85,0,0,.32-.62-.72-.35,0,0-.32.05-.71-.04-.39-.09-2.01-.13-1.66-.51.35-.38.62-1.56-.49-1.14,0,0-.73.21-.86-.25-.14-.45-.76-.34-.97.07-.21.42-.52.52-.41-.59.1-1.11.14-1.35.07-1.56-.07-.21-.2-.59.28-.66.49-.07.59.21.8.49.21.28.1.45.79.17.7-.28.7-.62,1.14-.21.45.41,1,0,1.49-.14.48-.14.52-.14.97,0,.45.14.59.14,1.04.17.45.04.55.04.9.42.35.38.7,1.42,1,1.42s.69-.52,1.15-.14c.45.38.97.21,1.77-.14.79-.34.28-.73,1.18-.69.9.03,2.08.42,2.19-.03.1-.45-.21-.59.45-.48.66.1.82-.87.13-1.43-.69-.55-1.21-.55-1.59-.66-.38-.11-1.04-.31.7-.41"></path><path class="st2" d="M44.17,72.25c.17.52-.98,1.1-.29,1.34.69.24,3.3.42,4.02-.2.73-.62,1.35-1.07,1.35-1.07,0,0,1.61-1.24.85-1.3-.76-.05-1.32-.22-1.51-.26-.19-.04-1.37-.45-.79.1.57.55.79.59.85.59s.99.09.45.33c-.54.24-1.68.45-2.75.07-1.07-.38-1.87-.64-1.87-.64,0,0-.68-.26-.62.17.05.44.31.87.31.87"></path><path class="st2" d="M38.17,65.78s1.77,1.98,1.77,1.62.02-.52.24-.52.99.07,1.07.05c.08-.02.5.38.17,1.11-.33.73.63,1.11.39.99-.24-.12-1.77-.66-1.31-.15.47.52.59.78.57.99-.02.2-.56,1.56-.56,1.56,0,0,.09-.29-.43-1.03-.52-.74-.45-1.02-.52-1.07-.07-.05-.9-.48-1.04-.78-.14-.29-.62-1.27-1.42-1.73-.17-.1-1.18-1.23-.8-1.38.38-.14,1.4.12,1.85.33"></path><path class="st2" d="M38.94,71.49s.62.49.96,1.13c.77,1.43-.4,3.21-.83,1.35-.05-.23-.21-.06-.7.16-.49.23-1.44.04-1.32-.57.1-.51.73-.83.73-.83,0,0,.9-.47-.3-1.07-.78-.39-1.38-.65-1.38-.65,0,0-.47-.17-1.07.43-.48.47-.97,1.13-1.26,1.2-.29.07-.91-.8-.45-1.56.46-.76,1.63-2.26,3.42-1.36,1.16.58,2.19,1.76,2.19,1.76"></path><path class="st2" d="M30.84,62.83s.97-.23,1.29.51c.32.74.38.85,1.3,1.26.93.42,1.66.67,1.8.63.91-.29,1.24-.32,1.66-.23.41.09-.37-.86-.83-1.13-.46-.28-.69-.58-.69-.72s-.29-2.25-.89-2.04c-.6.21-1.21,1.49-1.49,1.14-.28-.34-1.28-2.43-1.72-2.4-.44.02-.89,1.96-.86,2.23.02.28.36.78.42.75"></path><path class="st2" d="M43.63,61.67s.72.03.78-.32c.07-.34.21-.76.55-.9.35-.14.58-.16.72-.23.14-.07.21-.25.14-.46-.07-.21.65-.39.71-.05.07.35.44.77.95,1.06.51.3,2.18-.85,2.41-.29.23.55-.56,1.54-.49,1.54s.56-.14.19.72c-.37.85-.51.99-.83.67-.32-.33-.86-1.71-1.02-1.29-.16.42.21.65-.32.63-.53-.03-.99,0-1.04.16-.04.16-2.06.5-3.1-.21-1.04-.72-.82-.96.36-1.01"></path><path class="st2" d="M56.35,53.91s-.44.6-.97.76c-.53.16-1.48-.09-1.48-.09,0,0-.6-.18-.6.33s.47,1.06.3.99c-.44-.18-.62.12-.76,0-.14-.11-.56-.16-.44.14.12.3.39.28.46.56.07.28.81.37.83,0,.02-.37.23-.71.44-.81.21-.09.6-.07.92.02.32.09.95.07,1.27-.5.32-.58.69-.9.81-.99.12-.09-.44-.78-.78-.39"></path><path class="st2" d="M70.53,70.47s-.16.57,1.21.59c.33,0,.25.36-.61,1.05-.86.69-.49.35-.24,1.04q.24.7.28,1.11c.03.42-.21,1.25.42,1,.62-.24,2.01-1.23,2.49-1.56.54-.37,1.42-.8,1.59-1.46.18-.66.28-1.73-.48-1.63-.76.1-1.28-.06-2.15-.09-.86-.03-2.52-.31-2.51-.06"></path><path class="st2" d="M70.99,93.83s-1.37,1.43-1.07,1.55c.29.12,1.45-.4,1.9-.45.45-.05,1.79-.31,2.17-.28.38.03,2.6-.33,2.6-.33,0,0,.67,0,.54-.21-.14-.21-.41-.36-.85-.24-.43.12-.97.08-1.5.09-.48,0-1.52-.02-1.85.04-.95.17-1.59-.59-1.94-.17"></path><path class="st2" d="M46.2,51.68s1.49,1.92.77,2.04c-.42.07-2.21-1.58-1.95-.06.11.67-.93.89-.93.89,0,0,.54.9-.37,1.48-1.48.94-.04,1.91-.51,2.17-.46.25-.32,1.43-2.15.4-.35-.2-.69-1.28-1.08-1.44-.4-.16-.63-.62-.6-.86.02-.23-.46-.56-.44-.14.02.42.14.9-.07,1.25-.21.34-.62.51-1.32.46-.69-.05-.81.25-1.29.3-.49.05-1.76-.12-1.69-.39.07-.28.18-.65-.14-.99-.32-.34-.97-1.36-.97-1.36l-.37-.53s-.21-.39.21-.39.55.25.55.51.21.44.44.46c.23.03.21.23.21.49s.66.69,1.03.78c.05.01.56.33,1.72.06.21-.05.44-.03.69-.52.25-.49.37-.43.72-.66.34-.23.46-.34.23-.57-.22-.22-.07-.09-.6-.34-.53-.25-.92-.35-1.49-.26-.23.04-1.36.67-1.6.83-.23.16-.6.19-.74-.25-.14-.44-.04-.74.13-1.17.17-.46.04-.57.17-.86.17-.38.53-.86,1.63-.81,1.11.05.99.05,1.42.13.47.09.86.23,1.5.69.65.46.87,1.13.8,1.9-.07.76-.44,1.2.19,1.34.62.14,1.15.02,1.11-.21-.05-.23.02-1.32.02-1.32,0,0,.26-.78.42-.07.16.71-.1,1.29.25,1.34.35.04.34-.32.69-.34.4-.04.38-.3.43-.61.05-.3.18-.81.18-.95s-.53-1.22-.55-1.52c-.13-1.46.67-1.99.74-2.18.07-.19.6-.51.67-.74.07-.23.81-.07,1.11.03.3.09.46,1.26.83,2.03"></path><path class="st2" d="M33.06,52.81s-.44.74-.53,1.27c-.09.53-.17,2.24-.51,2.76-.57.86-1.94-.2-2.03.15-.09.35-.77,2.25-.92,2.56-.8,1.64-1.78,2.21-1.85,2.45-.07.23-.3.37-.69.28-.39-.09-.62-.12-.25-.49.37-.37.6-.62.71-.83.12-.21.05-.45.28-.77.28-.4.16-1.37,0-1.83-.16-.46-.11-1.44-.11-1.44l-.42-1.06s-.77-.23-.1-.42c.67-.19.66-.19.97-.35.34-.17.16-.67.23-1.43.07-.76-.14-.91-.34-1.14-.21-.23-.15-1.41.28-1.2.44.21,1.08,1.41,1.08,1.41,0,0,.66.9.83,1.11.35.43.82.72.95.65.14-.07.26-.26.04-.65-.13-.23.19-.74.65-.81.46-.07,1.15-1.27,1.55-.92.39.34.18.72.18.72"></path><path class="st2" d="M36.73,87.17c-.72-.44-2.06-1.17-2.26-2.37-.05-.28.29-.41,1.15-.29.63.09.56-.53.26-.89-.8-.98-3.63-.83-3.63-.83.69,1.57,3.31,5.59,3.31,5.59,0,0,.64,2.05,1.06,3.8.03-.93,1.81-4,.12-5.01"></path><path class="st2" d="M33.03,81.8c-.12-.39-.19-.7.13-.81.32-.12.53.1.53.1,3.99,3.13,3.8,3.58,4.32,4.66.36.75.92,1.38.92,1.38,0,0,1.68.26,2.23-.16,1.03-.77,2.85-2.26,2.27-2.21-.84.07-1.89.61-2.33.7-.53.12-1.69-.64-2.6-1.85-.82-1.1-3.97-3.6-3.97-3.6-.46-.33-.38-.32-.6-.57-.21-.25-1.27-1.63-1.67-2.3-.39-.67-.62-1.99-.74-1.73-.12.25-.29,4.29-.42,4.5.14.66.37,1.13.58,1.57.16.05.36.17.62.4.9.78.83.32.71-.07"></path><path class="st2" d="M32.45,73.67c.3.26.21-.33.63-.5.27-.12-.19-.12.1-.58.3-.46,0-.69-.34-.72-.34-.02-.6-.5-.83-1.11-.23-.6-.39-.58-.69-.56-.3.03-.62-.23-.74-.51-.12-.28-.44-.51-.44-.51,0,0,.37-1.26-.33-1.79-.69-.53-.08-1.77.17-2.23.25-.46-1.49-.73-1.95-.89-.32-.11-1.29-1.05-1.86-1.61.08.27.13.44.13.44-.14,1.42-.21,2.84.07,3.43.28.59,3.11,3.7,3.6,4.47.48.76,1.14,1.94,1.14,1.94,0,0,0,.42-.02,1.05.4-.35,1.07-.56,1.35-.33"></path><path class="st2" d="M27.64,48.39c.21.16.46.71.46,1.03s-.6,1.09.07,1.11c.67.02,1.02.2.9-.7-.12-.9.58-.76.72-.44.14.32.21.41-.03.62-.23.21-.88.79-.32.74.56-.05,2.4-2.24,2.38-2.61-.02-.37-.55-.32-.79-.3-.23.03-.32.28-.3-.32.02-.6-.67-.53.02-.6.69-.07,2.72-.32,2.72-.58s-.02-1.17-.6-.83c-.58.35-1.51-.09-1.95-.22-.44-.14-.27-1.67-.25-2,.02-.32.45-.75.82-.75s1.41-.45,2.29-.93c1.04-.56,2.3-.1,2.64-1.36.1-.35-1.71-1.27-2.01-1.32-.3-.05-2.74.1-1.76-.69.99-.78,3.52-.91,3.59-1.37.07-.46-1.88-.57-1.81-.61.06-.04.37-.45.19-.7-1.72.65-2.35,1.75-2.35,1.75-1.04,1.25-5.16,11.04-5.16,11.04,0,0-.09.56-.02,1.05.21-.49.45-1.09.54-1.01"></path><path class="st2" d="M59.01,29.02c.17,1.05-1.26,1.23-1.72,1.84-.46.6,1.18,3.62.12,3.43-1.06-.18-4.75-1.65-5.26-1.33-.51.32-1.34,0-.46-.6.88-.6,1.66-.92,2.13-1.11.46-.18,1.34-.55,1.39-1.02.04-.46-.32-.97.19-1.06.51-.09,3.54-.71,3.63-.16"></path><path class="st2" d="M51.11,30.02c.74.47,1.48.09,1.25.65-.23.56-1.06.88-1.62,1.29-.55.42-1.52,1.25-1.76.69-.23-.55.51-.88.79-1.29.28-.42.09-.65-.79-.42-.87.24-1.43.69-1.57.24-.14-.46-1.35-1.25-.33-1.25s1.58-.23,2.4-.69c.83-.46,1.11.46,1.62.78"></path><path class="st2" d="M66.99,28.73s2.9-1.27,2.68.16c-.23,1.43-.37,1.25-.69,1.99-.33.74-1.02,1.31-1.29,1.31s-1.48.69-.92-.28c.55-.97.83-.83.83-1.25s-.65-1.15-.04-1.34c.6-.18.14-.55-.09-.41-.23.14-.46-.04-.46-.18"></path><path class="st2" d="M83.6,89.75s-.5-.42-1.04-.52c-.54-.1-2.14-.15-2.96-.13-.81.02-2.79-.04-3.18-.04s-1.12-.07-1.44-.22c-.31-.16-1.35-.61-1.05.17.29.78,1.17.79,1.74,1,.57.21,1.03.61,1.03.61,0,0,1.56.8,1.7.86.37.16.7.13,1.27-.1.57-.23.49-.21,1.03-.43.65-.26,1.01-.36,1.44-.56.34-.16.2-.15,1.45-.64"></path><path class="st2" d="M66.92,112.36s-.74.43-1.04-.17c-1.01-2.05-6.13-4.78-7.85-6.19-.28-.23,6.13,2.94,15.12,2.25,0,0-4.21,3.08-6.23,4.11"></path><path class="st2" d="M43.71,37.32s-.17,1.2.34,2.92c.52,1.72,1.03,2.92.52,3.61-.52.69-1.72.52-3.09,1.37-1.38.86-2.24,3.09-2.75,1.37-.65-2.16-.47-1.91,2.92-2.92,4.24-1.26.34-1.55.34-2.75s-.17-3.26,1.72-3.61"></path><path class="st2" d="M53.11,49.01s-.86.06-1.2-.63c-.35-.69-.46-1.2-.63-1.43-.17-.23-.57-.06-.91-.57-.34-.52-.81-.81-.86-.12-.05.69.17.69-.05,1.37-.23.69-.29,1.09.34,1.2.63.12.34-.4,1.37.12,1.03.52,1.2.69,1.55.52.34-.17.63.23.4-.46"></path><path class="st2" d="M53.62,37.15s-.69.23-1.37.92c-.69.69-1.18.49-2.44,2.09-1.3,1.66-1.37,1.89-1.57,1.46-.72-1.55,0-1.95.57-2.75.57-.8.69-2.06,1.83-2.29,1.15-.23,2.86-.11,2.98.57"></path><path class="st2" d="M44.34,31.19s-.23.35-1.72.35-2.87.11-3.33.34c-.46.23-.57.92-1.03,2.18-.46,1.26-.69,2.52,1.15,1.03q1.83-1.49,2.98-1.72c1.15-.23,2.29-1.61,1.95-2.18"></path><path class="st2" d="M63.48,36.47s-1.26.34-1.95,1.03q-.69.69-1.03,1.26c-.34.57-2.06,1.95-1.6,1.03.46-.92,0-.57.12-1.49.12-.92.57-1.95,1.49-2.06.92-.12,2.41-.34,2.98.23"></path><path class="st2" d="M70.7,41.02s.86.69-.17,1.12c-1.03.43-1.2-.09-1.8.43-.6.52-1.63.43-2.32,1.12-.69.69-1.03.26-.52-.34.52-.6-.09-1.2.77-1.2s2.41-.34,2.75-.52c.35-.17.78-.95,1.29-.6"></path></g></svg>